M48
; DRILL file {KiCad (5.1.5)-3} date 12/19/2020 11:39:59 AM
; FORMAT={-:-/ absolute / metric / decimal}
; #@! TF.CreationDate,2020-12-19T11:39:59-05:00
; #@! TF.GenerationSoftware,Kicad,Pcbnew,(5.1.5)-3
; #@! TF.FileFunction,Plated,1,2,PTH
FMAT,2
METRIC
T1C0.400
T2C0.600
T3C0.762
T4C1.000
T5C1.800
T6C3.200
%
G90
G05
T1
X86.3Y-59.9
X86.3Y-61.2
X86.3Y-62.5
X86.3Y-63.8
X86.3Y-65.1
X86.3Y-66.3
X86.3Y-67.6
X88.8Y-66.7
X89.7Y-57.9
X93.8Y-109.7
X95.2Y-85.8
X106.1Y-109.7
X107.9Y-54.8
X108.1Y-56.1
X115.1Y-68.9
X118.2Y-61.2
X118.2Y-62.4
X118.2Y-63.7
X118.2Y-65.0
X118.2Y-66.3
X118.2Y-67.6
X118.5Y-109.7
X119.5Y-113.4
X119.6Y-89.8
X120.1Y-69.6
X120.5Y-112.5
X120.6Y-90.2
X121.3Y-71.4
X121.3Y-74.4
X121.3Y-86.6
X122.2Y-69.1
X122.4Y-87.5
X124.0Y-55.4
X126.0Y-80.7
X126.8Y-78.2
X127.6Y-75.6
X128.1Y-109.7
X138.05Y-52.0
X141.2Y-109.3
X142.8Y-89.9
X142.8Y-95.6
X144.7Y-108.4
X145.0Y-71.1
X145.4Y-74.4
X145.7Y-94.9
X145.7Y-101.0
X145.9Y-69.9
X145.9Y-72.7
X146.2Y-107.0
X146.6Y-71.1
X147.4Y-109.7
X148.2Y-64.4
X149.5Y-97.8
X149.5Y-102.4
X150.1Y-109.7
X150.8Y-115.8
X150.9Y-71.1
X150.9Y-95.4
X151.7Y-61.9
X152.5Y-64.6
X152.5Y-74.9
X152.5Y-76.2
X152.5Y-77.4
X152.9Y-91.5
X153.0Y-73.7
X153.4Y-60.4
X153.6Y-62.1
X153.8Y-64.4
X153.8Y-90.1
X154.6Y-85.6
X154.6Y-87.5
X154.6Y-89.1
X154.7Y-109.7
X155.5Y-95.2
X155.6Y-97.9
X155.6Y-104.5
X156.0Y-87.6
X156.6Y-109.7
X157.3Y-82.6
X158.1Y-71.6
X158.3Y-67.0
X158.8Y-86.6
X158.9Y-89.1
X159.2Y-95.1
X159.3Y-100.7
X159.4Y-114.4
X159.8Y-88.0
X160.1Y-85.6
X163.4Y-109.7
X168.3Y-107.2
X177.0Y-109.7
X180.7Y-52.1
X181.0Y-64.7
X181.6Y-52.9
X182.0Y-63.7
X182.6Y-53.7
X182.9Y-62.5
X183.3Y-68.8
X183.6Y-54.5
X183.7Y-61.2
X184.4Y-55.4
X184.5Y-59.8
X184.5Y-66.3
X184.5Y-67.6
X187.4Y-72.6
X187.6Y-73.9
X187.6Y-75.1
X187.6Y-76.4
X187.6Y-77.6
X187.6Y-78.8
X187.6Y-80.1
X190.0Y-66.6
X190.0Y-70.0
X190.2Y-71.8
X190.8Y-58.2
X191.6Y-61.2
X191.7Y-64.4
X191.9Y-56.1
X192.2Y-69.8
X194.6Y-73.2
X198.2Y-109.7
X211.8Y-109.7
X149.46Y-56.4
X149.46Y-57.75
X150.3Y-56.4
X150.3Y-57.75
X151.14Y-56.4
X151.14Y-57.75
X151.99Y-56.4
X151.99Y-57.75
X152.83Y-56.4
X152.83Y-57.75
X153.67Y-56.4
X153.67Y-57.75
X154.51Y-56.4
X154.51Y-57.75
X155.35Y-56.4
X155.35Y-57.75
T3
X94.95Y-57.9
X94.95Y-60.44
X94.95Y-62.98
X94.95Y-65.52
X94.95Y-68.06
X94.95Y-70.6
X94.95Y-73.14
X94.95Y-75.68
X94.95Y-78.22
X94.95Y-80.76
X105.11Y-57.9
X105.11Y-60.44
X105.11Y-62.98
X105.11Y-65.52
X105.11Y-68.06
X105.11Y-70.6
X105.11Y-73.14
X105.11Y-75.68
X105.11Y-78.22
X105.11Y-80.76
X164.95Y-57.9
X164.95Y-60.44
X164.95Y-62.98
X164.95Y-65.52
X164.95Y-68.06
X164.95Y-70.6
X164.95Y-73.14
X164.95Y-75.68
X164.95Y-78.22
X164.95Y-80.76
X175.11Y-57.9
X175.11Y-60.44
X175.11Y-62.98
X175.11Y-65.52
X175.11Y-68.06
X175.11Y-70.6
X175.11Y-73.14
X175.11Y-75.68
X175.11Y-78.22
X175.11Y-80.76
X129.95Y-57.9
X129.95Y-60.44
X129.95Y-62.98
X129.95Y-65.52
X129.95Y-68.06
X129.95Y-70.6
X129.95Y-73.14
X129.95Y-75.68
X129.95Y-78.22
X129.95Y-80.76
X140.11Y-57.9
X140.11Y-60.44
X140.11Y-62.98
X140.11Y-65.52
X140.11Y-68.06
X140.11Y-70.6
X140.11Y-73.14
X140.11Y-75.68
X140.11Y-78.22
X140.11Y-80.76
X199.95Y-57.9
X199.95Y-60.44
X199.95Y-62.98
X199.95Y-65.52
X199.95Y-68.06
X199.95Y-70.6
X199.95Y-73.14
X199.95Y-75.68
X199.95Y-78.22
X199.95Y-80.76
X210.11Y-57.9
X210.11Y-60.44
X210.11Y-62.98
X210.11Y-65.52
X210.11Y-68.06
X210.11Y-70.6
X210.11Y-73.14
X210.11Y-75.68
X210.11Y-78.22
X210.11Y-80.76
T4
X132.5Y-91.0
X132.5Y-105.5
X135.0Y-105.5
X137.5Y-91.0
X137.5Y-105.5
X97.5Y-91.0
X97.5Y-105.5
X100.0Y-105.5
X102.5Y-91.0
X102.5Y-105.5
X202.5Y-91.0
X202.5Y-105.5
X205.0Y-105.5
X207.5Y-91.0
X207.5Y-105.5
X167.5Y-91.0
X167.5Y-105.5
X170.0Y-105.5
X172.5Y-91.0
X172.5Y-105.5
T6
X218.5Y-53.1
X86.5Y-121.1
X86.5Y-53.1
X218.5Y-121.1
T2
G00X148.05Y-53.79
M15
G01X148.05Y-52.99
M16
G05
G00X148.05Y-57.52
M15
G01X148.05Y-56.02
M16
G05
G00X156.7Y-53.79
M15
G01X156.7Y-52.99
M16
G05
G00X156.7Y-57.52
M15
G01X156.7Y-56.02
M16
G05
T5
G00X129.3Y-97.6
M15
G01X129.3Y-98.4
M16
G05
G00X140.7Y-97.6
M15
G01X140.7Y-98.4
M16
G05
G00X94.3Y-97.6
M15
G01X94.3Y-98.4
M16
G05
G00X105.7Y-97.6
M15
G01X105.7Y-98.4
M16
G05
G00X199.3Y-97.6
M15
G01X199.3Y-98.4
M16
G05
G00X210.7Y-97.6
M15
G01X210.7Y-98.4
M16
G05
G00X164.3Y-97.6
M15
G01X164.3Y-98.4
M16
G05
G00X175.7Y-97.6
M15
G01X175.7Y-98.4
M16
G05
T0
M30
