G04 #@! TF.GenerationSoftware,KiCad,Pcbnew,(5.1.5)-3*
G04 #@! TF.CreationDate,2020-12-19T11:39:56-05:00*
G04 #@! TF.ProjectId,Deej_Controller,4465656a-5f43-46f6-9e74-726f6c6c6572,rev?*
G04 #@! TF.SameCoordinates,Original*
G04 #@! TF.FileFunction,Legend,Bot*
G04 #@! TF.FilePolarity,Positive*
%FSLAX46Y46*%
G04 Gerber Fmt 4.6, Leading zero omitted, Abs format (unit mm)*
G04 Created by KiCad (PCBNEW (5.1.5)-3) date 2020-12-19 11:39:56*
%MOMM*%
%LPD*%
G04 APERTURE LIST*
%ADD10C,0.010000*%
%ADD11C,1.402000*%
%ADD12R,2.102000X2.902000*%
%ADD13C,1.626000*%
%ADD14O,1.002000X1.802000*%
%ADD15O,1.002000X2.502000*%
%ADD16C,0.752000*%
%ADD17C,5.702000*%
G04 APERTURE END LIST*
D10*
G36*
X204575746Y-112233740D02*
G01*
X204285460Y-112233794D01*
X203996876Y-112233875D01*
X203710690Y-112233983D01*
X203427601Y-112234118D01*
X203148305Y-112234279D01*
X202873500Y-112234469D01*
X202603883Y-112234686D01*
X202340153Y-112234931D01*
X202083006Y-112235203D01*
X201833140Y-112235501D01*
X201591253Y-112235828D01*
X201358042Y-112236181D01*
X201134204Y-112236562D01*
X200920437Y-112236970D01*
X200717438Y-112237405D01*
X200525906Y-112237868D01*
X200346537Y-112238357D01*
X200180029Y-112238874D01*
X200027079Y-112239419D01*
X199888385Y-112239990D01*
X199764644Y-112240589D01*
X199656555Y-112241215D01*
X199564813Y-112241868D01*
X199490118Y-112242549D01*
X199433166Y-112243256D01*
X199394655Y-112243991D01*
X199375282Y-112244754D01*
X199374255Y-112244849D01*
X199186201Y-112274911D01*
X199004423Y-112322753D01*
X198830008Y-112387448D01*
X198664042Y-112468070D01*
X198507614Y-112563694D01*
X198361811Y-112673391D01*
X198227721Y-112796236D01*
X198106431Y-112931302D01*
X197999029Y-113077664D01*
X197906601Y-113234394D01*
X197830236Y-113400565D01*
X197771021Y-113575253D01*
X197758785Y-113621093D01*
X197753548Y-113641395D01*
X197748653Y-113659894D01*
X197744088Y-113677283D01*
X197739842Y-113694252D01*
X197735904Y-113711495D01*
X197732261Y-113729701D01*
X197728903Y-113749563D01*
X197725818Y-113771773D01*
X197722994Y-113797021D01*
X197720420Y-113826000D01*
X197718085Y-113859400D01*
X197715976Y-113897914D01*
X197714082Y-113942233D01*
X197712393Y-113993049D01*
X197710896Y-114051053D01*
X197709579Y-114116936D01*
X197708432Y-114191390D01*
X197707443Y-114275108D01*
X197706600Y-114368779D01*
X197705892Y-114473097D01*
X197705307Y-114588752D01*
X197704835Y-114716436D01*
X197704462Y-114856840D01*
X197704178Y-115010657D01*
X197703972Y-115178577D01*
X197703831Y-115361292D01*
X197703745Y-115559494D01*
X197703701Y-115773874D01*
X197703689Y-116005124D01*
X197703696Y-116253936D01*
X197703712Y-116521000D01*
X197703724Y-116807009D01*
X197703726Y-116930784D01*
X197703730Y-117222487D01*
X197703745Y-117494946D01*
X197703774Y-117748842D01*
X197703823Y-117984852D01*
X197703893Y-118203656D01*
X197703990Y-118405931D01*
X197704117Y-118592358D01*
X197704278Y-118763615D01*
X197704477Y-118920380D01*
X197704718Y-119063333D01*
X197705004Y-119193151D01*
X197705341Y-119310514D01*
X197705730Y-119416101D01*
X197706177Y-119510590D01*
X197706685Y-119594661D01*
X197707259Y-119668991D01*
X197707901Y-119734259D01*
X197708616Y-119791145D01*
X197709408Y-119840327D01*
X197710280Y-119882484D01*
X197711237Y-119918295D01*
X197712282Y-119948438D01*
X197713420Y-119973592D01*
X197714654Y-119994437D01*
X197715987Y-120011649D01*
X197717425Y-120025910D01*
X197718970Y-120037896D01*
X197720628Y-120048288D01*
X197721573Y-120053490D01*
X197767814Y-120248278D01*
X197831016Y-120432986D01*
X197910874Y-120607153D01*
X198007083Y-120770317D01*
X198119337Y-120922019D01*
X198247333Y-121061797D01*
X198390766Y-121189190D01*
X198547676Y-121302661D01*
X198699591Y-121390497D01*
X198863699Y-121464630D01*
X199036793Y-121523994D01*
X199215667Y-121567523D01*
X199397112Y-121594151D01*
X199434370Y-121597428D01*
X199451808Y-121598008D01*
X199488466Y-121598567D01*
X199543643Y-121599105D01*
X199616635Y-121599621D01*
X199706742Y-121600116D01*
X199813262Y-121600591D01*
X199935493Y-121601044D01*
X200072732Y-121601476D01*
X200224280Y-121601887D01*
X200389432Y-121602277D01*
X200567489Y-121602646D01*
X200757748Y-121602993D01*
X200959507Y-121603320D01*
X201172064Y-121603626D01*
X201394719Y-121603910D01*
X201626768Y-121604174D01*
X201867511Y-121604417D01*
X202116245Y-121604639D01*
X202372268Y-121604840D01*
X202634880Y-121605019D01*
X202903377Y-121605178D01*
X203177060Y-121605316D01*
X203455224Y-121605434D01*
X203737170Y-121605530D01*
X204022194Y-121605605D01*
X204309596Y-121605660D01*
X204598674Y-121605693D01*
X204888725Y-121605706D01*
X205179048Y-121605698D01*
X205468941Y-121605670D01*
X205757703Y-121605620D01*
X206044631Y-121605550D01*
X206329024Y-121605459D01*
X206610181Y-121605347D01*
X206887398Y-121605214D01*
X207159976Y-121605061D01*
X207427211Y-121604887D01*
X207688402Y-121604692D01*
X207942847Y-121604477D01*
X208189845Y-121604241D01*
X208428693Y-121603984D01*
X208658691Y-121603707D01*
X208879136Y-121603409D01*
X209089326Y-121603090D01*
X209288559Y-121602751D01*
X209476135Y-121602391D01*
X209651351Y-121602010D01*
X209813505Y-121601610D01*
X209961895Y-121601188D01*
X210095821Y-121600746D01*
X210214579Y-121600283D01*
X210317468Y-121599800D01*
X210403787Y-121599297D01*
X210472834Y-121598773D01*
X210523907Y-121598228D01*
X210556304Y-121597663D01*
X210568079Y-121597215D01*
X210691492Y-121582620D01*
X210822257Y-121557945D01*
X210951710Y-121524962D01*
X211010337Y-121506862D01*
X211189183Y-121437923D01*
X211357930Y-121352366D01*
X211515688Y-121251236D01*
X211661568Y-121135577D01*
X211794683Y-121006434D01*
X211893668Y-120889116D01*
X205635661Y-120889116D01*
X205626022Y-120951636D01*
X205600464Y-121009217D01*
X205560941Y-121058449D01*
X205509411Y-121095921D01*
X205461050Y-121115089D01*
X205438238Y-121118456D01*
X205398327Y-121121385D01*
X205344135Y-121123864D01*
X205278481Y-121125882D01*
X205204181Y-121127430D01*
X205124055Y-121128495D01*
X205040919Y-121129067D01*
X204957594Y-121129134D01*
X204876895Y-121128687D01*
X204801642Y-121127714D01*
X204734652Y-121126204D01*
X204678743Y-121124147D01*
X204636735Y-121121530D01*
X204611592Y-121118377D01*
X204550103Y-121096100D01*
X204499813Y-121060006D01*
X204461664Y-121013243D01*
X204436599Y-120958955D01*
X204425559Y-120900290D01*
X204429487Y-120840392D01*
X204449325Y-120782409D01*
X204486013Y-120729486D01*
X204492973Y-120722233D01*
X204510013Y-120705677D01*
X204526353Y-120691913D01*
X204543938Y-120680683D01*
X204564717Y-120671730D01*
X204590634Y-120664796D01*
X204623637Y-120659623D01*
X204665672Y-120655954D01*
X204718685Y-120653530D01*
X204784623Y-120652095D01*
X204865432Y-120651390D01*
X204963059Y-120651157D01*
X205029883Y-120651137D01*
X205138693Y-120651189D01*
X205229515Y-120651536D01*
X205304283Y-120652462D01*
X205364930Y-120654256D01*
X205413391Y-120657202D01*
X205451598Y-120661586D01*
X205481486Y-120667694D01*
X205504988Y-120675813D01*
X205524038Y-120686229D01*
X205540569Y-120699226D01*
X205556516Y-120715092D01*
X205571186Y-120731193D01*
X205602102Y-120772067D01*
X205623495Y-120813361D01*
X205627422Y-120825067D01*
X205635661Y-120889116D01*
X211893668Y-120889116D01*
X211914143Y-120864849D01*
X212019060Y-120711868D01*
X212108545Y-120548536D01*
X212181709Y-120375895D01*
X212237663Y-120194991D01*
X212273017Y-120023174D01*
X212274397Y-120004417D01*
X212275709Y-119966690D01*
X212276954Y-119910942D01*
X212278131Y-119838126D01*
X212279240Y-119749191D01*
X212280281Y-119645089D01*
X212281255Y-119526771D01*
X212282162Y-119395187D01*
X212283001Y-119251288D01*
X212283772Y-119096026D01*
X212284475Y-118930350D01*
X212285111Y-118755212D01*
X212285680Y-118571562D01*
X212286181Y-118380352D01*
X212286614Y-118182533D01*
X212286940Y-118000856D01*
X210895082Y-118000856D01*
X210895014Y-118243162D01*
X210894867Y-118469308D01*
X210894641Y-118678996D01*
X210894337Y-118871928D01*
X210893957Y-119047804D01*
X210893500Y-119206327D01*
X210892967Y-119347198D01*
X210892360Y-119470119D01*
X210891678Y-119574791D01*
X210890922Y-119660916D01*
X210890094Y-119728197D01*
X210889194Y-119776333D01*
X210888222Y-119805027D01*
X210887598Y-119812834D01*
X210864178Y-119902003D01*
X210823538Y-119983654D01*
X210767645Y-120055625D01*
X210698466Y-120115753D01*
X210617969Y-120161876D01*
X210547038Y-120187158D01*
X210541245Y-120188211D01*
X210531566Y-120189212D01*
X210517527Y-120190164D01*
X210498654Y-120191068D01*
X210474474Y-120191926D01*
X210444513Y-120192737D01*
X210408295Y-120193505D01*
X210365348Y-120194229D01*
X210315197Y-120194912D01*
X210257369Y-120195554D01*
X210191389Y-120196157D01*
X210116783Y-120196723D01*
X210033077Y-120197252D01*
X209939798Y-120197745D01*
X209836471Y-120198205D01*
X209722623Y-120198632D01*
X209597779Y-120199028D01*
X209461465Y-120199393D01*
X209313208Y-120199730D01*
X209152533Y-120200039D01*
X208978966Y-120200322D01*
X208792033Y-120200580D01*
X208591261Y-120200815D01*
X208376175Y-120201027D01*
X208146302Y-120201218D01*
X207901167Y-120201389D01*
X207640296Y-120201542D01*
X207363216Y-120201678D01*
X207069451Y-120201798D01*
X206758530Y-120201903D01*
X206429976Y-120201995D01*
X206083317Y-120202074D01*
X205718078Y-120202144D01*
X205333786Y-120202203D01*
X204999603Y-120202246D01*
X204601028Y-120202290D01*
X204221892Y-120202322D01*
X203861712Y-120202342D01*
X203520003Y-120202348D01*
X203196283Y-120202339D01*
X202890069Y-120202313D01*
X202600877Y-120202270D01*
X202328225Y-120202209D01*
X202071629Y-120202127D01*
X201830606Y-120202023D01*
X201604673Y-120201897D01*
X201393347Y-120201747D01*
X201196144Y-120201572D01*
X201012582Y-120201370D01*
X200842177Y-120201140D01*
X200684446Y-120200882D01*
X200538906Y-120200593D01*
X200405074Y-120200272D01*
X200282466Y-120199919D01*
X200170600Y-120199532D01*
X200068991Y-120199109D01*
X199977158Y-120198650D01*
X199894617Y-120198152D01*
X199820885Y-120197616D01*
X199755478Y-120197039D01*
X199697914Y-120196420D01*
X199647709Y-120195758D01*
X199604380Y-120195052D01*
X199567443Y-120194300D01*
X199536417Y-120193502D01*
X199510817Y-120192656D01*
X199490161Y-120191760D01*
X199473964Y-120190813D01*
X199461745Y-120189815D01*
X199453020Y-120188763D01*
X199447306Y-120187658D01*
X199447277Y-120187650D01*
X199358066Y-120154781D01*
X199278927Y-120106293D01*
X199211718Y-120044206D01*
X199158297Y-119970537D01*
X199120520Y-119887307D01*
X199102442Y-119812834D01*
X199101427Y-119796082D01*
X199100484Y-119759706D01*
X199099611Y-119704006D01*
X199098812Y-119629279D01*
X199098085Y-119535824D01*
X199097432Y-119423940D01*
X199096854Y-119293924D01*
X199096351Y-119146076D01*
X199095924Y-118980693D01*
X199095574Y-118798074D01*
X199095301Y-118598518D01*
X199095106Y-118382322D01*
X199094990Y-118149785D01*
X199094953Y-117901206D01*
X199094997Y-117636882D01*
X199095121Y-117357113D01*
X199095328Y-117062196D01*
X199095493Y-116876000D01*
X199095768Y-116592119D01*
X199096037Y-116327472D01*
X199096304Y-116081375D01*
X199096574Y-115853139D01*
X199096852Y-115642080D01*
X199097142Y-115447510D01*
X199097449Y-115268743D01*
X199097779Y-115105093D01*
X199098135Y-114955873D01*
X199098522Y-114820397D01*
X199098946Y-114697978D01*
X199099411Y-114587930D01*
X199099921Y-114489566D01*
X199100482Y-114402201D01*
X199101098Y-114325147D01*
X199101774Y-114257718D01*
X199102515Y-114199229D01*
X199103325Y-114148991D01*
X199104210Y-114106320D01*
X199105174Y-114070528D01*
X199106221Y-114040930D01*
X199107357Y-114016838D01*
X199108586Y-113997566D01*
X199109913Y-113982429D01*
X199111343Y-113970738D01*
X199112881Y-113961809D01*
X199114531Y-113954954D01*
X199115755Y-113951023D01*
X199154595Y-113867200D01*
X199209374Y-113793495D01*
X199277978Y-113731600D01*
X199358293Y-113683209D01*
X199448204Y-113650015D01*
X199506628Y-113637986D01*
X199520705Y-113637373D01*
X199553989Y-113636781D01*
X199605779Y-113636211D01*
X199675375Y-113635663D01*
X199762078Y-113635136D01*
X199865188Y-113634632D01*
X199984005Y-113634150D01*
X200117830Y-113633689D01*
X200265963Y-113633250D01*
X200427704Y-113632834D01*
X200602354Y-113632439D01*
X200789213Y-113632066D01*
X200987581Y-113631714D01*
X201196759Y-113631385D01*
X201416047Y-113631078D01*
X201644744Y-113630792D01*
X201882153Y-113630529D01*
X202127572Y-113630287D01*
X202380302Y-113630068D01*
X202639643Y-113629870D01*
X202904896Y-113629694D01*
X203175362Y-113629540D01*
X203450339Y-113629408D01*
X203729129Y-113629298D01*
X204011033Y-113629210D01*
X204295349Y-113629144D01*
X204581379Y-113629100D01*
X204868423Y-113629077D01*
X205155781Y-113629077D01*
X205442754Y-113629098D01*
X205728641Y-113629142D01*
X206012744Y-113629208D01*
X206294362Y-113629295D01*
X206572796Y-113629404D01*
X206847345Y-113629536D01*
X207117312Y-113629689D01*
X207381994Y-113629864D01*
X207640694Y-113630062D01*
X207892711Y-113630281D01*
X208137346Y-113630522D01*
X208373899Y-113630785D01*
X208601670Y-113631071D01*
X208819959Y-113631378D01*
X209028067Y-113631707D01*
X209225295Y-113632058D01*
X209410941Y-113632431D01*
X209584308Y-113632827D01*
X209744695Y-113633244D01*
X209891402Y-113633683D01*
X210023730Y-113634144D01*
X210140978Y-113634627D01*
X210242448Y-113635133D01*
X210327440Y-113635660D01*
X210395254Y-113636209D01*
X210445190Y-113636780D01*
X210476548Y-113637374D01*
X210488393Y-113637940D01*
X210583352Y-113662747D01*
X210669606Y-113703506D01*
X210745086Y-113758536D01*
X210807725Y-113826159D01*
X210855452Y-113904698D01*
X210874285Y-113951023D01*
X210876016Y-113956834D01*
X210877632Y-113964239D01*
X210879137Y-113973924D01*
X210880535Y-113986577D01*
X210881833Y-114002883D01*
X210883034Y-114023528D01*
X210884142Y-114049200D01*
X210885164Y-114080584D01*
X210886104Y-114118368D01*
X210886965Y-114163237D01*
X210887754Y-114215878D01*
X210888475Y-114276977D01*
X210889133Y-114347221D01*
X210889732Y-114427296D01*
X210890277Y-114517889D01*
X210890773Y-114619686D01*
X210891225Y-114733373D01*
X210891638Y-114859637D01*
X210892015Y-114999165D01*
X210892363Y-115152642D01*
X210892685Y-115320755D01*
X210892987Y-115504191D01*
X210893272Y-115703636D01*
X210893547Y-115919776D01*
X210893816Y-116153298D01*
X210894083Y-116404888D01*
X210894354Y-116675232D01*
X210894547Y-116876000D01*
X210894803Y-117179962D01*
X210894977Y-117468958D01*
X210895070Y-117742688D01*
X210895082Y-118000856D01*
X212286940Y-118000856D01*
X212286980Y-117979054D01*
X212287279Y-117770867D01*
X212287510Y-117558923D01*
X212287673Y-117344173D01*
X212287769Y-117127567D01*
X212287797Y-116910056D01*
X212287758Y-116692591D01*
X212287652Y-116476123D01*
X212287478Y-116261603D01*
X212287237Y-116049982D01*
X212286928Y-115842210D01*
X212286551Y-115639238D01*
X212286108Y-115442017D01*
X212285597Y-115251499D01*
X212285018Y-115068633D01*
X212284372Y-114894370D01*
X212283659Y-114729663D01*
X212282878Y-114575460D01*
X212282030Y-114432713D01*
X212281115Y-114302374D01*
X212280132Y-114185392D01*
X212279082Y-114082719D01*
X212277965Y-113995305D01*
X212276780Y-113924101D01*
X212275528Y-113870059D01*
X212274209Y-113834129D01*
X212272960Y-113818039D01*
X212233493Y-113629467D01*
X212176380Y-113448979D01*
X212102546Y-113277456D01*
X212012918Y-113115776D01*
X211908421Y-112964818D01*
X211789981Y-112825462D01*
X211658524Y-112698585D01*
X211514976Y-112585069D01*
X211360264Y-112485790D01*
X211195313Y-112401630D01*
X211021049Y-112333466D01*
X210838398Y-112282178D01*
X210648287Y-112248644D01*
X210615785Y-112244826D01*
X210598798Y-112244061D01*
X210562588Y-112243322D01*
X210507851Y-112242611D01*
X210435286Y-112241928D01*
X210345590Y-112241272D01*
X210239461Y-112240643D01*
X210117595Y-112240041D01*
X209980691Y-112239467D01*
X209829445Y-112238920D01*
X209664556Y-112238400D01*
X209486721Y-112237908D01*
X209296637Y-112237443D01*
X209095002Y-112237005D01*
X208882513Y-112236594D01*
X208659869Y-112236211D01*
X208427765Y-112235855D01*
X208186900Y-112235527D01*
X207937972Y-112235226D01*
X207681677Y-112234952D01*
X207418714Y-112234705D01*
X207149779Y-112234486D01*
X206875571Y-112234294D01*
X206596786Y-112234130D01*
X206314122Y-112233992D01*
X206028277Y-112233882D01*
X205739949Y-112233799D01*
X205449834Y-112233744D01*
X205158630Y-112233715D01*
X204867035Y-112233714D01*
X204575746Y-112233740D01*
G37*
X204575746Y-112233740D02*
X204285460Y-112233794D01*
X203996876Y-112233875D01*
X203710690Y-112233983D01*
X203427601Y-112234118D01*
X203148305Y-112234279D01*
X202873500Y-112234469D01*
X202603883Y-112234686D01*
X202340153Y-112234931D01*
X202083006Y-112235203D01*
X201833140Y-112235501D01*
X201591253Y-112235828D01*
X201358042Y-112236181D01*
X201134204Y-112236562D01*
X200920437Y-112236970D01*
X200717438Y-112237405D01*
X200525906Y-112237868D01*
X200346537Y-112238357D01*
X200180029Y-112238874D01*
X200027079Y-112239419D01*
X199888385Y-112239990D01*
X199764644Y-112240589D01*
X199656555Y-112241215D01*
X199564813Y-112241868D01*
X199490118Y-112242549D01*
X199433166Y-112243256D01*
X199394655Y-112243991D01*
X199375282Y-112244754D01*
X199374255Y-112244849D01*
X199186201Y-112274911D01*
X199004423Y-112322753D01*
X198830008Y-112387448D01*
X198664042Y-112468070D01*
X198507614Y-112563694D01*
X198361811Y-112673391D01*
X198227721Y-112796236D01*
X198106431Y-112931302D01*
X197999029Y-113077664D01*
X197906601Y-113234394D01*
X197830236Y-113400565D01*
X197771021Y-113575253D01*
X197758785Y-113621093D01*
X197753548Y-113641395D01*
X197748653Y-113659894D01*
X197744088Y-113677283D01*
X197739842Y-113694252D01*
X197735904Y-113711495D01*
X197732261Y-113729701D01*
X197728903Y-113749563D01*
X197725818Y-113771773D01*
X197722994Y-113797021D01*
X197720420Y-113826000D01*
X197718085Y-113859400D01*
X197715976Y-113897914D01*
X197714082Y-113942233D01*
X197712393Y-113993049D01*
X197710896Y-114051053D01*
X197709579Y-114116936D01*
X197708432Y-114191390D01*
X197707443Y-114275108D01*
X197706600Y-114368779D01*
X197705892Y-114473097D01*
X197705307Y-114588752D01*
X197704835Y-114716436D01*
X197704462Y-114856840D01*
X197704178Y-115010657D01*
X197703972Y-115178577D01*
X197703831Y-115361292D01*
X197703745Y-115559494D01*
X197703701Y-115773874D01*
X197703689Y-116005124D01*
X197703696Y-116253936D01*
X197703712Y-116521000D01*
X197703724Y-116807009D01*
X197703726Y-116930784D01*
X197703730Y-117222487D01*
X197703745Y-117494946D01*
X197703774Y-117748842D01*
X197703823Y-117984852D01*
X197703893Y-118203656D01*
X197703990Y-118405931D01*
X197704117Y-118592358D01*
X197704278Y-118763615D01*
X197704477Y-118920380D01*
X197704718Y-119063333D01*
X197705004Y-119193151D01*
X197705341Y-119310514D01*
X197705730Y-119416101D01*
X197706177Y-119510590D01*
X197706685Y-119594661D01*
X197707259Y-119668991D01*
X197707901Y-119734259D01*
X197708616Y-119791145D01*
X197709408Y-119840327D01*
X197710280Y-119882484D01*
X197711237Y-119918295D01*
X197712282Y-119948438D01*
X197713420Y-119973592D01*
X197714654Y-119994437D01*
X197715987Y-120011649D01*
X197717425Y-120025910D01*
X197718970Y-120037896D01*
X197720628Y-120048288D01*
X197721573Y-120053490D01*
X197767814Y-120248278D01*
X197831016Y-120432986D01*
X197910874Y-120607153D01*
X198007083Y-120770317D01*
X198119337Y-120922019D01*
X198247333Y-121061797D01*
X198390766Y-121189190D01*
X198547676Y-121302661D01*
X198699591Y-121390497D01*
X198863699Y-121464630D01*
X199036793Y-121523994D01*
X199215667Y-121567523D01*
X199397112Y-121594151D01*
X199434370Y-121597428D01*
X199451808Y-121598008D01*
X199488466Y-121598567D01*
X199543643Y-121599105D01*
X199616635Y-121599621D01*
X199706742Y-121600116D01*
X199813262Y-121600591D01*
X199935493Y-121601044D01*
X200072732Y-121601476D01*
X200224280Y-121601887D01*
X200389432Y-121602277D01*
X200567489Y-121602646D01*
X200757748Y-121602993D01*
X200959507Y-121603320D01*
X201172064Y-121603626D01*
X201394719Y-121603910D01*
X201626768Y-121604174D01*
X201867511Y-121604417D01*
X202116245Y-121604639D01*
X202372268Y-121604840D01*
X202634880Y-121605019D01*
X202903377Y-121605178D01*
X203177060Y-121605316D01*
X203455224Y-121605434D01*
X203737170Y-121605530D01*
X204022194Y-121605605D01*
X204309596Y-121605660D01*
X204598674Y-121605693D01*
X204888725Y-121605706D01*
X205179048Y-121605698D01*
X205468941Y-121605670D01*
X205757703Y-121605620D01*
X206044631Y-121605550D01*
X206329024Y-121605459D01*
X206610181Y-121605347D01*
X206887398Y-121605214D01*
X207159976Y-121605061D01*
X207427211Y-121604887D01*
X207688402Y-121604692D01*
X207942847Y-121604477D01*
X208189845Y-121604241D01*
X208428693Y-121603984D01*
X208658691Y-121603707D01*
X208879136Y-121603409D01*
X209089326Y-121603090D01*
X209288559Y-121602751D01*
X209476135Y-121602391D01*
X209651351Y-121602010D01*
X209813505Y-121601610D01*
X209961895Y-121601188D01*
X210095821Y-121600746D01*
X210214579Y-121600283D01*
X210317468Y-121599800D01*
X210403787Y-121599297D01*
X210472834Y-121598773D01*
X210523907Y-121598228D01*
X210556304Y-121597663D01*
X210568079Y-121597215D01*
X210691492Y-121582620D01*
X210822257Y-121557945D01*
X210951710Y-121524962D01*
X211010337Y-121506862D01*
X211189183Y-121437923D01*
X211357930Y-121352366D01*
X211515688Y-121251236D01*
X211661568Y-121135577D01*
X211794683Y-121006434D01*
X211893668Y-120889116D01*
X205635661Y-120889116D01*
X205626022Y-120951636D01*
X205600464Y-121009217D01*
X205560941Y-121058449D01*
X205509411Y-121095921D01*
X205461050Y-121115089D01*
X205438238Y-121118456D01*
X205398327Y-121121385D01*
X205344135Y-121123864D01*
X205278481Y-121125882D01*
X205204181Y-121127430D01*
X205124055Y-121128495D01*
X205040919Y-121129067D01*
X204957594Y-121129134D01*
X204876895Y-121128687D01*
X204801642Y-121127714D01*
X204734652Y-121126204D01*
X204678743Y-121124147D01*
X204636735Y-121121530D01*
X204611592Y-121118377D01*
X204550103Y-121096100D01*
X204499813Y-121060006D01*
X204461664Y-121013243D01*
X204436599Y-120958955D01*
X204425559Y-120900290D01*
X204429487Y-120840392D01*
X204449325Y-120782409D01*
X204486013Y-120729486D01*
X204492973Y-120722233D01*
X204510013Y-120705677D01*
X204526353Y-120691913D01*
X204543938Y-120680683D01*
X204564717Y-120671730D01*
X204590634Y-120664796D01*
X204623637Y-120659623D01*
X204665672Y-120655954D01*
X204718685Y-120653530D01*
X204784623Y-120652095D01*
X204865432Y-120651390D01*
X204963059Y-120651157D01*
X205029883Y-120651137D01*
X205138693Y-120651189D01*
X205229515Y-120651536D01*
X205304283Y-120652462D01*
X205364930Y-120654256D01*
X205413391Y-120657202D01*
X205451598Y-120661586D01*
X205481486Y-120667694D01*
X205504988Y-120675813D01*
X205524038Y-120686229D01*
X205540569Y-120699226D01*
X205556516Y-120715092D01*
X205571186Y-120731193D01*
X205602102Y-120772067D01*
X205623495Y-120813361D01*
X205627422Y-120825067D01*
X205635661Y-120889116D01*
X211893668Y-120889116D01*
X211914143Y-120864849D01*
X212019060Y-120711868D01*
X212108545Y-120548536D01*
X212181709Y-120375895D01*
X212237663Y-120194991D01*
X212273017Y-120023174D01*
X212274397Y-120004417D01*
X212275709Y-119966690D01*
X212276954Y-119910942D01*
X212278131Y-119838126D01*
X212279240Y-119749191D01*
X212280281Y-119645089D01*
X212281255Y-119526771D01*
X212282162Y-119395187D01*
X212283001Y-119251288D01*
X212283772Y-119096026D01*
X212284475Y-118930350D01*
X212285111Y-118755212D01*
X212285680Y-118571562D01*
X212286181Y-118380352D01*
X212286614Y-118182533D01*
X212286940Y-118000856D01*
X210895082Y-118000856D01*
X210895014Y-118243162D01*
X210894867Y-118469308D01*
X210894641Y-118678996D01*
X210894337Y-118871928D01*
X210893957Y-119047804D01*
X210893500Y-119206327D01*
X210892967Y-119347198D01*
X210892360Y-119470119D01*
X210891678Y-119574791D01*
X210890922Y-119660916D01*
X210890094Y-119728197D01*
X210889194Y-119776333D01*
X210888222Y-119805027D01*
X210887598Y-119812834D01*
X210864178Y-119902003D01*
X210823538Y-119983654D01*
X210767645Y-120055625D01*
X210698466Y-120115753D01*
X210617969Y-120161876D01*
X210547038Y-120187158D01*
X210541245Y-120188211D01*
X210531566Y-120189212D01*
X210517527Y-120190164D01*
X210498654Y-120191068D01*
X210474474Y-120191926D01*
X210444513Y-120192737D01*
X210408295Y-120193505D01*
X210365348Y-120194229D01*
X210315197Y-120194912D01*
X210257369Y-120195554D01*
X210191389Y-120196157D01*
X210116783Y-120196723D01*
X210033077Y-120197252D01*
X209939798Y-120197745D01*
X209836471Y-120198205D01*
X209722623Y-120198632D01*
X209597779Y-120199028D01*
X209461465Y-120199393D01*
X209313208Y-120199730D01*
X209152533Y-120200039D01*
X208978966Y-120200322D01*
X208792033Y-120200580D01*
X208591261Y-120200815D01*
X208376175Y-120201027D01*
X208146302Y-120201218D01*
X207901167Y-120201389D01*
X207640296Y-120201542D01*
X207363216Y-120201678D01*
X207069451Y-120201798D01*
X206758530Y-120201903D01*
X206429976Y-120201995D01*
X206083317Y-120202074D01*
X205718078Y-120202144D01*
X205333786Y-120202203D01*
X204999603Y-120202246D01*
X204601028Y-120202290D01*
X204221892Y-120202322D01*
X203861712Y-120202342D01*
X203520003Y-120202348D01*
X203196283Y-120202339D01*
X202890069Y-120202313D01*
X202600877Y-120202270D01*
X202328225Y-120202209D01*
X202071629Y-120202127D01*
X201830606Y-120202023D01*
X201604673Y-120201897D01*
X201393347Y-120201747D01*
X201196144Y-120201572D01*
X201012582Y-120201370D01*
X200842177Y-120201140D01*
X200684446Y-120200882D01*
X200538906Y-120200593D01*
X200405074Y-120200272D01*
X200282466Y-120199919D01*
X200170600Y-120199532D01*
X200068991Y-120199109D01*
X199977158Y-120198650D01*
X199894617Y-120198152D01*
X199820885Y-120197616D01*
X199755478Y-120197039D01*
X199697914Y-120196420D01*
X199647709Y-120195758D01*
X199604380Y-120195052D01*
X199567443Y-120194300D01*
X199536417Y-120193502D01*
X199510817Y-120192656D01*
X199490161Y-120191760D01*
X199473964Y-120190813D01*
X199461745Y-120189815D01*
X199453020Y-120188763D01*
X199447306Y-120187658D01*
X199447277Y-120187650D01*
X199358066Y-120154781D01*
X199278927Y-120106293D01*
X199211718Y-120044206D01*
X199158297Y-119970537D01*
X199120520Y-119887307D01*
X199102442Y-119812834D01*
X199101427Y-119796082D01*
X199100484Y-119759706D01*
X199099611Y-119704006D01*
X199098812Y-119629279D01*
X199098085Y-119535824D01*
X199097432Y-119423940D01*
X199096854Y-119293924D01*
X199096351Y-119146076D01*
X199095924Y-118980693D01*
X199095574Y-118798074D01*
X199095301Y-118598518D01*
X199095106Y-118382322D01*
X199094990Y-118149785D01*
X199094953Y-117901206D01*
X199094997Y-117636882D01*
X199095121Y-117357113D01*
X199095328Y-117062196D01*
X199095493Y-116876000D01*
X199095768Y-116592119D01*
X199096037Y-116327472D01*
X199096304Y-116081375D01*
X199096574Y-115853139D01*
X199096852Y-115642080D01*
X199097142Y-115447510D01*
X199097449Y-115268743D01*
X199097779Y-115105093D01*
X199098135Y-114955873D01*
X199098522Y-114820397D01*
X199098946Y-114697978D01*
X199099411Y-114587930D01*
X199099921Y-114489566D01*
X199100482Y-114402201D01*
X199101098Y-114325147D01*
X199101774Y-114257718D01*
X199102515Y-114199229D01*
X199103325Y-114148991D01*
X199104210Y-114106320D01*
X199105174Y-114070528D01*
X199106221Y-114040930D01*
X199107357Y-114016838D01*
X199108586Y-113997566D01*
X199109913Y-113982429D01*
X199111343Y-113970738D01*
X199112881Y-113961809D01*
X199114531Y-113954954D01*
X199115755Y-113951023D01*
X199154595Y-113867200D01*
X199209374Y-113793495D01*
X199277978Y-113731600D01*
X199358293Y-113683209D01*
X199448204Y-113650015D01*
X199506628Y-113637986D01*
X199520705Y-113637373D01*
X199553989Y-113636781D01*
X199605779Y-113636211D01*
X199675375Y-113635663D01*
X199762078Y-113635136D01*
X199865188Y-113634632D01*
X199984005Y-113634150D01*
X200117830Y-113633689D01*
X200265963Y-113633250D01*
X200427704Y-113632834D01*
X200602354Y-113632439D01*
X200789213Y-113632066D01*
X200987581Y-113631714D01*
X201196759Y-113631385D01*
X201416047Y-113631078D01*
X201644744Y-113630792D01*
X201882153Y-113630529D01*
X202127572Y-113630287D01*
X202380302Y-113630068D01*
X202639643Y-113629870D01*
X202904896Y-113629694D01*
X203175362Y-113629540D01*
X203450339Y-113629408D01*
X203729129Y-113629298D01*
X204011033Y-113629210D01*
X204295349Y-113629144D01*
X204581379Y-113629100D01*
X204868423Y-113629077D01*
X205155781Y-113629077D01*
X205442754Y-113629098D01*
X205728641Y-113629142D01*
X206012744Y-113629208D01*
X206294362Y-113629295D01*
X206572796Y-113629404D01*
X206847345Y-113629536D01*
X207117312Y-113629689D01*
X207381994Y-113629864D01*
X207640694Y-113630062D01*
X207892711Y-113630281D01*
X208137346Y-113630522D01*
X208373899Y-113630785D01*
X208601670Y-113631071D01*
X208819959Y-113631378D01*
X209028067Y-113631707D01*
X209225295Y-113632058D01*
X209410941Y-113632431D01*
X209584308Y-113632827D01*
X209744695Y-113633244D01*
X209891402Y-113633683D01*
X210023730Y-113634144D01*
X210140978Y-113634627D01*
X210242448Y-113635133D01*
X210327440Y-113635660D01*
X210395254Y-113636209D01*
X210445190Y-113636780D01*
X210476548Y-113637374D01*
X210488393Y-113637940D01*
X210583352Y-113662747D01*
X210669606Y-113703506D01*
X210745086Y-113758536D01*
X210807725Y-113826159D01*
X210855452Y-113904698D01*
X210874285Y-113951023D01*
X210876016Y-113956834D01*
X210877632Y-113964239D01*
X210879137Y-113973924D01*
X210880535Y-113986577D01*
X210881833Y-114002883D01*
X210883034Y-114023528D01*
X210884142Y-114049200D01*
X210885164Y-114080584D01*
X210886104Y-114118368D01*
X210886965Y-114163237D01*
X210887754Y-114215878D01*
X210888475Y-114276977D01*
X210889133Y-114347221D01*
X210889732Y-114427296D01*
X210890277Y-114517889D01*
X210890773Y-114619686D01*
X210891225Y-114733373D01*
X210891638Y-114859637D01*
X210892015Y-114999165D01*
X210892363Y-115152642D01*
X210892685Y-115320755D01*
X210892987Y-115504191D01*
X210893272Y-115703636D01*
X210893547Y-115919776D01*
X210893816Y-116153298D01*
X210894083Y-116404888D01*
X210894354Y-116675232D01*
X210894547Y-116876000D01*
X210894803Y-117179962D01*
X210894977Y-117468958D01*
X210895070Y-117742688D01*
X210895082Y-118000856D01*
X212286940Y-118000856D01*
X212286980Y-117979054D01*
X212287279Y-117770867D01*
X212287510Y-117558923D01*
X212287673Y-117344173D01*
X212287769Y-117127567D01*
X212287797Y-116910056D01*
X212287758Y-116692591D01*
X212287652Y-116476123D01*
X212287478Y-116261603D01*
X212287237Y-116049982D01*
X212286928Y-115842210D01*
X212286551Y-115639238D01*
X212286108Y-115442017D01*
X212285597Y-115251499D01*
X212285018Y-115068633D01*
X212284372Y-114894370D01*
X212283659Y-114729663D01*
X212282878Y-114575460D01*
X212282030Y-114432713D01*
X212281115Y-114302374D01*
X212280132Y-114185392D01*
X212279082Y-114082719D01*
X212277965Y-113995305D01*
X212276780Y-113924101D01*
X212275528Y-113870059D01*
X212274209Y-113834129D01*
X212272960Y-113818039D01*
X212233493Y-113629467D01*
X212176380Y-113448979D01*
X212102546Y-113277456D01*
X212012918Y-113115776D01*
X211908421Y-112964818D01*
X211789981Y-112825462D01*
X211658524Y-112698585D01*
X211514976Y-112585069D01*
X211360264Y-112485790D01*
X211195313Y-112401630D01*
X211021049Y-112333466D01*
X210838398Y-112282178D01*
X210648287Y-112248644D01*
X210615785Y-112244826D01*
X210598798Y-112244061D01*
X210562588Y-112243322D01*
X210507851Y-112242611D01*
X210435286Y-112241928D01*
X210345590Y-112241272D01*
X210239461Y-112240643D01*
X210117595Y-112240041D01*
X209980691Y-112239467D01*
X209829445Y-112238920D01*
X209664556Y-112238400D01*
X209486721Y-112237908D01*
X209296637Y-112237443D01*
X209095002Y-112237005D01*
X208882513Y-112236594D01*
X208659869Y-112236211D01*
X208427765Y-112235855D01*
X208186900Y-112235527D01*
X207937972Y-112235226D01*
X207681677Y-112234952D01*
X207418714Y-112234705D01*
X207149779Y-112234486D01*
X206875571Y-112234294D01*
X206596786Y-112234130D01*
X206314122Y-112233992D01*
X206028277Y-112233882D01*
X205739949Y-112233799D01*
X205449834Y-112233744D01*
X205158630Y-112233715D01*
X204867035Y-112233714D01*
X204575746Y-112233740D01*
G36*
X205718176Y-121967705D02*
G01*
X205473134Y-121967881D01*
X205208182Y-121968203D01*
X204980079Y-121968569D01*
X204742385Y-121968976D01*
X204523756Y-121969339D01*
X204323336Y-121969681D01*
X204140267Y-121970025D01*
X203973694Y-121970392D01*
X203822761Y-121970804D01*
X203686609Y-121971286D01*
X203564384Y-121971857D01*
X203455228Y-121972542D01*
X203358286Y-121973362D01*
X203272699Y-121974339D01*
X203197613Y-121975496D01*
X203132171Y-121976856D01*
X203075516Y-121978440D01*
X203026791Y-121980271D01*
X202985140Y-121982371D01*
X202949707Y-121984763D01*
X202919636Y-121987469D01*
X202894068Y-121990511D01*
X202872149Y-121993912D01*
X202853022Y-121997694D01*
X202835830Y-122001879D01*
X202819717Y-122006490D01*
X202803825Y-122011549D01*
X202787300Y-122017078D01*
X202769284Y-122023099D01*
X202758824Y-122026503D01*
X202618584Y-122081754D01*
X202487823Y-122153824D01*
X202367835Y-122241367D01*
X202259914Y-122343041D01*
X202165352Y-122457501D01*
X202085442Y-122583404D01*
X202021478Y-122719404D01*
X201983256Y-122832450D01*
X201963496Y-122902275D01*
X205060533Y-122902275D01*
X205358394Y-122902266D01*
X205636958Y-122902238D01*
X205896849Y-122902188D01*
X206138693Y-122902113D01*
X206363115Y-122902009D01*
X206570737Y-122901875D01*
X206762186Y-122901708D01*
X206938086Y-122901503D01*
X207099061Y-122901259D01*
X207245737Y-122900973D01*
X207378737Y-122900641D01*
X207498686Y-122900261D01*
X207606210Y-122899829D01*
X207701932Y-122899344D01*
X207786478Y-122898802D01*
X207860471Y-122898199D01*
X207924537Y-122897534D01*
X207979301Y-122896804D01*
X208025386Y-122896005D01*
X208063417Y-122895134D01*
X208094020Y-122894189D01*
X208117818Y-122893167D01*
X208135437Y-122892064D01*
X208147501Y-122890879D01*
X208154634Y-122889607D01*
X208157462Y-122888247D01*
X208157569Y-122887900D01*
X208154016Y-122868408D01*
X208144458Y-122835188D01*
X208130549Y-122792903D01*
X208113945Y-122746214D01*
X208096297Y-122699785D01*
X208079261Y-122658278D01*
X208065502Y-122628353D01*
X207987606Y-122494639D01*
X207895401Y-122374271D01*
X207790030Y-122268025D01*
X207672640Y-122176677D01*
X207544374Y-122101003D01*
X207406378Y-122041777D01*
X207259797Y-121999776D01*
X207105774Y-121975775D01*
X207101726Y-121975402D01*
X207075207Y-121973972D01*
X207028858Y-121972688D01*
X206962671Y-121971551D01*
X206876639Y-121970559D01*
X206770756Y-121969713D01*
X206645014Y-121969013D01*
X206499407Y-121968460D01*
X206333926Y-121968052D01*
X206148566Y-121967790D01*
X205943318Y-121967675D01*
X205718176Y-121967705D01*
G37*
X205718176Y-121967705D02*
X205473134Y-121967881D01*
X205208182Y-121968203D01*
X204980079Y-121968569D01*
X204742385Y-121968976D01*
X204523756Y-121969339D01*
X204323336Y-121969681D01*
X204140267Y-121970025D01*
X203973694Y-121970392D01*
X203822761Y-121970804D01*
X203686609Y-121971286D01*
X203564384Y-121971857D01*
X203455228Y-121972542D01*
X203358286Y-121973362D01*
X203272699Y-121974339D01*
X203197613Y-121975496D01*
X203132171Y-121976856D01*
X203075516Y-121978440D01*
X203026791Y-121980271D01*
X202985140Y-121982371D01*
X202949707Y-121984763D01*
X202919636Y-121987469D01*
X202894068Y-121990511D01*
X202872149Y-121993912D01*
X202853022Y-121997694D01*
X202835830Y-122001879D01*
X202819717Y-122006490D01*
X202803825Y-122011549D01*
X202787300Y-122017078D01*
X202769284Y-122023099D01*
X202758824Y-122026503D01*
X202618584Y-122081754D01*
X202487823Y-122153824D01*
X202367835Y-122241367D01*
X202259914Y-122343041D01*
X202165352Y-122457501D01*
X202085442Y-122583404D01*
X202021478Y-122719404D01*
X201983256Y-122832450D01*
X201963496Y-122902275D01*
X205060533Y-122902275D01*
X205358394Y-122902266D01*
X205636958Y-122902238D01*
X205896849Y-122902188D01*
X206138693Y-122902113D01*
X206363115Y-122902009D01*
X206570737Y-122901875D01*
X206762186Y-122901708D01*
X206938086Y-122901503D01*
X207099061Y-122901259D01*
X207245737Y-122900973D01*
X207378737Y-122900641D01*
X207498686Y-122900261D01*
X207606210Y-122899829D01*
X207701932Y-122899344D01*
X207786478Y-122898802D01*
X207860471Y-122898199D01*
X207924537Y-122897534D01*
X207979301Y-122896804D01*
X208025386Y-122896005D01*
X208063417Y-122895134D01*
X208094020Y-122894189D01*
X208117818Y-122893167D01*
X208135437Y-122892064D01*
X208147501Y-122890879D01*
X208154634Y-122889607D01*
X208157462Y-122888247D01*
X208157569Y-122887900D01*
X208154016Y-122868408D01*
X208144458Y-122835188D01*
X208130549Y-122792903D01*
X208113945Y-122746214D01*
X208096297Y-122699785D01*
X208079261Y-122658278D01*
X208065502Y-122628353D01*
X207987606Y-122494639D01*
X207895401Y-122374271D01*
X207790030Y-122268025D01*
X207672640Y-122176677D01*
X207544374Y-122101003D01*
X207406378Y-122041777D01*
X207259797Y-121999776D01*
X207105774Y-121975775D01*
X207101726Y-121975402D01*
X207075207Y-121973972D01*
X207028858Y-121972688D01*
X206962671Y-121971551D01*
X206876639Y-121970559D01*
X206770756Y-121969713D01*
X206645014Y-121969013D01*
X206499407Y-121968460D01*
X206333926Y-121968052D01*
X206148566Y-121967790D01*
X205943318Y-121967675D01*
X205718176Y-121967705D01*
G36*
X135240419Y-110477219D02*
G01*
X135192212Y-110479286D01*
X135157548Y-110482762D01*
X135143108Y-110487647D01*
X135143027Y-110488083D01*
X135130502Y-110495148D01*
X135097630Y-110502466D01*
X135051462Y-110508475D01*
X135050351Y-110508581D01*
X134995680Y-110515872D01*
X134925718Y-110528199D01*
X134851699Y-110543487D01*
X134814466Y-110552130D01*
X134753980Y-110568054D01*
X134697198Y-110586158D01*
X134638752Y-110608707D01*
X134573273Y-110637964D01*
X134495391Y-110676191D01*
X134399739Y-110725652D01*
X134387241Y-110732223D01*
X134323689Y-110770881D01*
X134248119Y-110825032D01*
X134166691Y-110889585D01*
X134085565Y-110959449D01*
X134010900Y-111029535D01*
X133949648Y-111093850D01*
X133902169Y-111149822D01*
X133855447Y-111208560D01*
X133812812Y-111265453D01*
X133777595Y-111315889D01*
X133753127Y-111355254D01*
X133742737Y-111378937D01*
X133742594Y-111380589D01*
X133732436Y-111397567D01*
X133730429Y-111398505D01*
X133718072Y-111413341D01*
X133698566Y-111448032D01*
X133674545Y-111496774D01*
X133648638Y-111553763D01*
X133623479Y-111613197D01*
X133601700Y-111669270D01*
X133585931Y-111716179D01*
X133585151Y-111718865D01*
X133570937Y-111764493D01*
X133557892Y-111799807D01*
X133550176Y-111815060D01*
X133542293Y-111834095D01*
X133531057Y-111872933D01*
X133518458Y-111924439D01*
X133513804Y-111945492D01*
X133500802Y-112028837D01*
X133492316Y-112131557D01*
X133488337Y-112245941D01*
X133488859Y-112364279D01*
X133493874Y-112478861D01*
X133503374Y-112581978D01*
X133514489Y-112652487D01*
X133526547Y-112708521D01*
X133537905Y-112754592D01*
X133546799Y-112783815D01*
X133549638Y-112789784D01*
X133558116Y-112807877D01*
X133572910Y-112845918D01*
X133591711Y-112897784D01*
X133606566Y-112940646D01*
X133647906Y-113044548D01*
X133699239Y-113147141D01*
X133727403Y-113194646D01*
X133761277Y-113248668D01*
X133791364Y-113297835D01*
X133813350Y-113335039D01*
X133820564Y-113348095D01*
X133841989Y-113380641D01*
X133878309Y-113426963D01*
X133924735Y-113481692D01*
X133976477Y-113539457D01*
X134028747Y-113594890D01*
X134076756Y-113642619D01*
X134109848Y-113672464D01*
X134166406Y-113716879D01*
X134235326Y-113766511D01*
X134310902Y-113817699D01*
X134387428Y-113866783D01*
X134459198Y-113910100D01*
X134520505Y-113943989D01*
X134565163Y-113964610D01*
X134607225Y-113981476D01*
X134637810Y-113995842D01*
X134648580Y-114003007D01*
X134664017Y-114011075D01*
X134699583Y-114024567D01*
X134749046Y-114041208D01*
X134778434Y-114050425D01*
X134831971Y-114067041D01*
X134874268Y-114080597D01*
X134899408Y-114089174D01*
X134903772Y-114091066D01*
X134904910Y-114105046D01*
X134906715Y-114142569D01*
X134909033Y-114199732D01*
X134911712Y-114272630D01*
X134914598Y-114357359D01*
X134916169Y-114406056D01*
X134926041Y-114718004D01*
X134770237Y-114794457D01*
X134692371Y-114833901D01*
X134606393Y-114879419D01*
X134524580Y-114924429D01*
X134477135Y-114951653D01*
X134410516Y-114990291D01*
X134341172Y-115029617D01*
X134278998Y-115064058D01*
X134246851Y-115081327D01*
X134186819Y-115114225D01*
X134123124Y-115151153D01*
X134075778Y-115180208D01*
X134017993Y-115215218D01*
X133953140Y-115251680D01*
X133914765Y-115271795D01*
X133857761Y-115301959D01*
X133798277Y-115335800D01*
X133763189Y-115357194D01*
X133640283Y-115431725D01*
X133513363Y-115502053D01*
X133495459Y-115511397D01*
X133458805Y-115531501D01*
X133406205Y-115561820D01*
X133345025Y-115598051D01*
X133289513Y-115631670D01*
X133224787Y-115670717D01*
X133160032Y-115708744D01*
X133103461Y-115740982D01*
X133068336Y-115760068D01*
X133011759Y-115791091D01*
X132949836Y-115827369D01*
X132915349Y-115848744D01*
X132861478Y-115881843D01*
X132798461Y-115918615D01*
X132749875Y-115945668D01*
X132701450Y-115972578D01*
X132638250Y-116008773D01*
X132568945Y-116049243D01*
X132510353Y-116084078D01*
X132452378Y-116118174D01*
X132402193Y-116146353D01*
X132364811Y-116165892D01*
X132345244Y-116174073D01*
X132344382Y-116174162D01*
X132329319Y-116183389D01*
X132328432Y-116187892D01*
X132317312Y-116200073D01*
X132307838Y-116201622D01*
X132289559Y-116208545D01*
X132287243Y-116214426D01*
X132275850Y-116228116D01*
X132257611Y-116236636D01*
X132232789Y-116247826D01*
X132191307Y-116269793D01*
X132139771Y-116298736D01*
X132084792Y-116330854D01*
X132032978Y-116362344D01*
X131990938Y-116389407D01*
X131985189Y-116393327D01*
X131957215Y-116410811D01*
X131913154Y-116436375D01*
X131861207Y-116465295D01*
X131845655Y-116473733D01*
X131788282Y-116505552D01*
X131731956Y-116538272D01*
X131687299Y-116565695D01*
X131680899Y-116569869D01*
X131630403Y-116601489D01*
X131575822Y-116633095D01*
X131559567Y-116641900D01*
X131527880Y-116659529D01*
X131477813Y-116688464D01*
X131414437Y-116725725D01*
X131342823Y-116768334D01*
X131275553Y-116808770D01*
X131205634Y-116850781D01*
X131143937Y-116887415D01*
X131094235Y-116916468D01*
X131060298Y-116935737D01*
X131045899Y-116943017D01*
X131045786Y-116943027D01*
X131030033Y-116949985D01*
X130995740Y-116969054D01*
X130947484Y-116997532D01*
X130889845Y-117032714D01*
X130827401Y-117071896D01*
X130825027Y-117073407D01*
X130777442Y-117102824D01*
X130730636Y-117130364D01*
X130708324Y-117142759D01*
X130669103Y-117164730D01*
X130613074Y-117197457D01*
X130546537Y-117237119D01*
X130475790Y-117279897D01*
X130407134Y-117321971D01*
X130346867Y-117359521D01*
X130301289Y-117388728D01*
X130287654Y-117397853D01*
X130247142Y-117423859D01*
X130210432Y-117444548D01*
X130198410Y-117450194D01*
X130170502Y-117464100D01*
X130128559Y-117487672D01*
X130081925Y-117515648D01*
X130028227Y-117548349D01*
X129963354Y-117587046D01*
X129900009Y-117624173D01*
X129890774Y-117629514D01*
X129804231Y-117683875D01*
X129728943Y-117741959D01*
X129661615Y-117807715D01*
X129598950Y-117885093D01*
X129537655Y-117978041D01*
X129474433Y-118090510D01*
X129424797Y-118187964D01*
X129349081Y-118341388D01*
X129349081Y-120234361D01*
X129406036Y-120356397D01*
X129460722Y-120463450D01*
X129523908Y-120570448D01*
X129590668Y-120669781D01*
X129656074Y-120753837D01*
X129682456Y-120783286D01*
X129726055Y-120823732D01*
X129786922Y-120872651D01*
X129858310Y-120925199D01*
X129933475Y-120976530D01*
X130005672Y-121021800D01*
X130047555Y-121045541D01*
X130081693Y-121064764D01*
X130129508Y-121092882D01*
X130185229Y-121126362D01*
X130243087Y-121161670D01*
X130297310Y-121195273D01*
X130342130Y-121223638D01*
X130371776Y-121243231D01*
X130378811Y-121248392D01*
X130400390Y-121262668D01*
X130438741Y-121285205D01*
X130486283Y-121311578D01*
X130495513Y-121316542D01*
X130558214Y-121351630D01*
X130627836Y-121392912D01*
X130685363Y-121428934D01*
X130743700Y-121465613D01*
X130806502Y-121503137D01*
X130860133Y-121533362D01*
X130900074Y-121555572D01*
X130957313Y-121588454D01*
X131025686Y-121628415D01*
X131099027Y-121671863D01*
X131140912Y-121696946D01*
X131207086Y-121736504D01*
X131264851Y-121770579D01*
X131310213Y-121796852D01*
X131339179Y-121813002D01*
X131347803Y-121817081D01*
X131361464Y-121823826D01*
X131394196Y-121842373D01*
X131441648Y-121870190D01*
X131499470Y-121904747D01*
X131524799Y-121920054D01*
X131586005Y-121956693D01*
X131639079Y-121987584D01*
X131679529Y-122010180D01*
X131702860Y-122021933D01*
X131706370Y-122023027D01*
X131723340Y-122030050D01*
X131755311Y-122048249D01*
X131786421Y-122067894D01*
X131942885Y-122163809D01*
X132053692Y-122223325D01*
X132091314Y-122244201D01*
X132116302Y-122261861D01*
X132122486Y-122269960D01*
X132133914Y-122282884D01*
X132153378Y-122291664D01*
X132180063Y-122303177D01*
X132222973Y-122324959D01*
X132274886Y-122352980D01*
X132328586Y-122383210D01*
X132376852Y-122411618D01*
X132412465Y-122434175D01*
X132424540Y-122443040D01*
X132446765Y-122457588D01*
X132485553Y-122479297D01*
X132532657Y-122503558D01*
X132534378Y-122504409D01*
X132592211Y-122534656D01*
X132651871Y-122568553D01*
X132692270Y-122593529D01*
X132741975Y-122624339D01*
X132801956Y-122658947D01*
X132850162Y-122685064D01*
X132907007Y-122715739D01*
X132973655Y-122753314D01*
X133036604Y-122790161D01*
X133042378Y-122793635D01*
X133098675Y-122827130D01*
X133154685Y-122859665D01*
X133199941Y-122885175D01*
X133207058Y-122889050D01*
X133248990Y-122913559D01*
X133284414Y-122937468D01*
X133295458Y-122946352D01*
X133321485Y-122964635D01*
X133338344Y-122970379D01*
X133355502Y-122977141D01*
X133391237Y-122995678D01*
X133440746Y-123023360D01*
X133499228Y-123057561D01*
X133515473Y-123067295D01*
X133577081Y-123103937D01*
X133632428Y-123136011D01*
X133676178Y-123160485D01*
X133702998Y-123174326D01*
X133706069Y-123175633D01*
X133728862Y-123186955D01*
X133769408Y-123209510D01*
X133822097Y-123240095D01*
X133881320Y-123275510D01*
X133885089Y-123277798D01*
X133942547Y-123312113D01*
X133991905Y-123340481D01*
X134028272Y-123360169D01*
X134046757Y-123368444D01*
X134047519Y-123368541D01*
X134065206Y-123375521D01*
X134097962Y-123393660D01*
X134131565Y-123414489D01*
X134186507Y-123448857D01*
X134248581Y-123485789D01*
X134311877Y-123521983D01*
X134370490Y-123554139D01*
X134418510Y-123578954D01*
X134450029Y-123593127D01*
X134453108Y-123594175D01*
X134477058Y-123606307D01*
X134484000Y-123616417D01*
X134495443Y-123629236D01*
X134523893Y-123645460D01*
X134533629Y-123649774D01*
X134566238Y-123665527D01*
X134614811Y-123691564D01*
X134671905Y-123723813D01*
X134712815Y-123747819D01*
X134795089Y-123793784D01*
X134870959Y-123828134D01*
X134947154Y-123852584D01*
X135030403Y-123868850D01*
X135127433Y-123878646D01*
X135244974Y-123883687D01*
X135246000Y-123883712D01*
X135326419Y-123884674D01*
X135404500Y-123883797D01*
X135472637Y-123881288D01*
X135523219Y-123877353D01*
X135533790Y-123875932D01*
X135610291Y-123861698D01*
X135679944Y-123843079D01*
X135749316Y-123817501D01*
X135824975Y-123782391D01*
X135913487Y-123735174D01*
X135959946Y-123708898D01*
X136036883Y-123665147D01*
X136116494Y-123620415D01*
X136190879Y-123579104D01*
X136252138Y-123545621D01*
X136268865Y-123536647D01*
X136327350Y-123504655D01*
X136383437Y-123472537D01*
X136427959Y-123445593D01*
X136440486Y-123437443D01*
X136482124Y-123411639D01*
X136536104Y-123381173D01*
X136584648Y-123355752D01*
X136642377Y-123325249D01*
X136701951Y-123291235D01*
X136742540Y-123266143D01*
X136792604Y-123235565D01*
X136852982Y-123201760D01*
X136900432Y-123177165D01*
X136947682Y-123152882D01*
X136986907Y-123130967D01*
X137009859Y-123116034D01*
X137010270Y-123115692D01*
X137033298Y-123099593D01*
X137072150Y-123075734D01*
X137120745Y-123047491D01*
X137173003Y-123018240D01*
X137222841Y-122991356D01*
X137264179Y-122970214D01*
X137290935Y-122958190D01*
X137296791Y-122956649D01*
X137311548Y-122947838D01*
X137312324Y-122943853D01*
X137323727Y-122932123D01*
X137354041Y-122912232D01*
X137397423Y-122887902D01*
X137411865Y-122880420D01*
X137470736Y-122849094D01*
X137530605Y-122815021D01*
X137578810Y-122785413D01*
X137580054Y-122784597D01*
X137625590Y-122756403D01*
X137684506Y-122722336D01*
X137745625Y-122688819D01*
X137758540Y-122682010D01*
X137810120Y-122654383D01*
X137853894Y-122629716D01*
X137882943Y-122611954D01*
X137888973Y-122607600D01*
X137917676Y-122587758D01*
X137965765Y-122558761D01*
X138028011Y-122523621D01*
X138099184Y-122485352D01*
X138120284Y-122474338D01*
X138161571Y-122451663D01*
X138218890Y-122418473D01*
X138285095Y-122378981D01*
X138353044Y-122337400D01*
X138362648Y-122331428D01*
X138427879Y-122291456D01*
X138490133Y-122254521D01*
X138543117Y-122224278D01*
X138580536Y-122204380D01*
X138585754Y-122201891D01*
X138624634Y-122181870D01*
X138676953Y-122152133D01*
X138733248Y-122118116D01*
X138750511Y-122107245D01*
X138812038Y-122069220D01*
X138878319Y-122030096D01*
X138936754Y-121997278D01*
X138946162Y-121992244D01*
X138998242Y-121963660D01*
X139063029Y-121926623D01*
X139129940Y-121887228D01*
X139160265Y-121868930D01*
X139215004Y-121836359D01*
X139263725Y-121808800D01*
X139300045Y-121789786D01*
X139314724Y-121783436D01*
X139338029Y-121770837D01*
X139344324Y-121760537D01*
X139355778Y-121747130D01*
X139384239Y-121730607D01*
X139393756Y-121726378D01*
X139424880Y-121711026D01*
X139472574Y-121684715D01*
X139530221Y-121651199D01*
X139588349Y-121615997D01*
X139647295Y-121580183D01*
X139700554Y-121548956D01*
X139742284Y-121525669D01*
X139766645Y-121513672D01*
X139766678Y-121513660D01*
X139793780Y-121500322D01*
X139835603Y-121476386D01*
X139884047Y-121446529D01*
X139894355Y-121439912D01*
X139955563Y-121401798D01*
X140023787Y-121361538D01*
X140081918Y-121329126D01*
X140128806Y-121302682D01*
X140166884Y-121278595D01*
X140188825Y-121261545D01*
X140190216Y-121259956D01*
X140208876Y-121243199D01*
X140216877Y-121240433D01*
X140234309Y-121233481D01*
X140270430Y-121214359D01*
X140320780Y-121185664D01*
X140380898Y-121149995D01*
X140446324Y-121109948D01*
X140511351Y-121068922D01*
X140557525Y-121040148D01*
X140597218Y-121016907D01*
X140622753Y-121003670D01*
X140624794Y-121002857D01*
X140646145Y-120991744D01*
X140684015Y-120968984D01*
X140732219Y-120938372D01*
X140764620Y-120917088D01*
X140888848Y-120818507D01*
X140999383Y-120698652D01*
X141093898Y-120561243D01*
X141170066Y-120410002D01*
X141225561Y-120248652D01*
X141249086Y-120142192D01*
X141253396Y-120113270D01*
X141256999Y-120078882D01*
X141259928Y-120036790D01*
X141262216Y-119984757D01*
X141263898Y-119920544D01*
X141265006Y-119841915D01*
X141265575Y-119746632D01*
X141265637Y-119632457D01*
X141265226Y-119497152D01*
X141264375Y-119338481D01*
X141263363Y-119187838D01*
X141257360Y-118350325D01*
X141195459Y-118219892D01*
X141161840Y-118151945D01*
X141124469Y-118080933D01*
X141089490Y-118018386D01*
X141076455Y-117996542D01*
X141049626Y-117951633D01*
X141029565Y-117915659D01*
X141020120Y-117895704D01*
X139737988Y-117895704D01*
X139730409Y-117987104D01*
X139720939Y-118022941D01*
X139680797Y-118107267D01*
X139617126Y-118182746D01*
X139532980Y-118247412D01*
X139431415Y-118299300D01*
X139315482Y-118336444D01*
X139204379Y-118355335D01*
X139095128Y-118361934D01*
X138988338Y-118359535D01*
X138893754Y-118348540D01*
X138858293Y-118341027D01*
X138760650Y-118306805D01*
X138669923Y-118256806D01*
X138591162Y-118195039D01*
X138529419Y-118125508D01*
X138489746Y-118052221D01*
X138488019Y-118047330D01*
X138467320Y-117951739D01*
X138468086Y-117917163D01*
X137270877Y-117917163D01*
X137270284Y-117985430D01*
X137268615Y-118046272D01*
X137265856Y-118094094D01*
X137261995Y-118123303D01*
X137259258Y-118129504D01*
X137249961Y-118146703D01*
X137241752Y-118180194D01*
X137240238Y-118190097D01*
X137225955Y-118245802D01*
X137197959Y-118315538D01*
X137159913Y-118392072D01*
X137115475Y-118468170D01*
X137068306Y-118536597D01*
X137058599Y-118549061D01*
X137022629Y-118591293D01*
X136977196Y-118640460D01*
X136926309Y-118692707D01*
X136873973Y-118744177D01*
X136824195Y-118791016D01*
X136780983Y-118829367D01*
X136748342Y-118855376D01*
X136730280Y-118865185D01*
X136730085Y-118865189D01*
X136710964Y-118873842D01*
X136682574Y-118895322D01*
X136674834Y-118902248D01*
X136646983Y-118923023D01*
X136600157Y-118952661D01*
X136540042Y-118987943D01*
X136472321Y-119025652D01*
X136402680Y-119062568D01*
X136336802Y-119095475D01*
X136316919Y-119104877D01*
X136240230Y-119137117D01*
X136149459Y-119170100D01*
X136057479Y-119199346D01*
X136001135Y-119214733D01*
X135949214Y-119228448D01*
X135904946Y-119241512D01*
X135877799Y-119251128D01*
X135877567Y-119251233D01*
X135843278Y-119260418D01*
X135785604Y-119268489D01*
X135708600Y-119275336D01*
X135616324Y-119280849D01*
X135512830Y-119284918D01*
X135402176Y-119287434D01*
X135288417Y-119288286D01*
X135175609Y-119287364D01*
X135067808Y-119284559D01*
X134969071Y-119279761D01*
X134928777Y-119276930D01*
X134859586Y-119270714D01*
X134798511Y-119263764D01*
X134751768Y-119256887D01*
X134725567Y-119250892D01*
X134724270Y-119250351D01*
X134696945Y-119240651D01*
X134652865Y-119227924D01*
X134606922Y-119216236D01*
X134437604Y-119165143D01*
X134260646Y-119091195D01*
X134155516Y-119038121D01*
X134098788Y-119008102D01*
X134050923Y-118983576D01*
X134017051Y-118967119D01*
X134002405Y-118961298D01*
X133983856Y-118952543D01*
X133949404Y-118928623D01*
X133903271Y-118893055D01*
X133849678Y-118849355D01*
X133792847Y-118801040D01*
X133737001Y-118751626D01*
X133686360Y-118704631D01*
X133645781Y-118664237D01*
X133596763Y-118610820D01*
X133549888Y-118556252D01*
X133508740Y-118505096D01*
X133476904Y-118461920D01*
X133457966Y-118431288D01*
X133454270Y-118420368D01*
X133448440Y-118405675D01*
X133432803Y-118372402D01*
X133410140Y-118326375D01*
X133396471Y-118299274D01*
X133338671Y-118185568D01*
X133338119Y-117902808D01*
X133338716Y-117792019D01*
X133340929Y-117703088D01*
X133344684Y-117637613D01*
X133349905Y-117597187D01*
X133352968Y-117587024D01*
X133401957Y-117483892D01*
X133443555Y-117401278D01*
X133480656Y-117334243D01*
X133516152Y-117277844D01*
X133552936Y-117227139D01*
X133590765Y-117180847D01*
X133632407Y-117134920D01*
X133681456Y-117085153D01*
X133733558Y-117035455D01*
X133784358Y-116989740D01*
X133829502Y-116951918D01*
X133864636Y-116925901D01*
X133885406Y-116915601D01*
X133886074Y-116915568D01*
X133901660Y-116906264D01*
X133918880Y-116889023D01*
X133939621Y-116872544D01*
X133979263Y-116847278D01*
X134032115Y-116816661D01*
X134092489Y-116784131D01*
X134092702Y-116784020D01*
X134151791Y-116753105D01*
X134202383Y-116726225D01*
X134239253Y-116706186D01*
X134257178Y-116695790D01*
X134257459Y-116695591D01*
X134282213Y-116683333D01*
X134327774Y-116665878D01*
X134388415Y-116645100D01*
X134458411Y-116622873D01*
X134532033Y-116601070D01*
X134603556Y-116581567D01*
X134614432Y-116578782D01*
X134675620Y-116562538D01*
X134729513Y-116546890D01*
X134768737Y-116534047D01*
X134782621Y-116528379D01*
X134816388Y-116519910D01*
X134845053Y-116529645D01*
X134863988Y-116540872D01*
X134879157Y-116554128D01*
X134891082Y-116572487D01*
X134900289Y-116599019D01*
X134907301Y-116636796D01*
X134912641Y-116688889D01*
X134916834Y-116758370D01*
X134920402Y-116848310D01*
X134923871Y-116961782D01*
X134924885Y-116997807D01*
X134928888Y-117134363D01*
X134932718Y-117246331D01*
X134936636Y-117336577D01*
X134940906Y-117407969D01*
X134945792Y-117463373D01*
X134951557Y-117505656D01*
X134958464Y-117537685D01*
X134966776Y-117562329D01*
X134976758Y-117582452D01*
X134978909Y-117586074D01*
X135015797Y-117630138D01*
X135069404Y-117674583D01*
X135129979Y-117712487D01*
X135187770Y-117736930D01*
X135193728Y-117738547D01*
X135274830Y-117750943D01*
X135354690Y-117748797D01*
X135425925Y-117733141D01*
X135481147Y-117705008D01*
X135490659Y-117697020D01*
X135517007Y-117677553D01*
X135535491Y-117670703D01*
X135559860Y-117659026D01*
X135588771Y-117628729D01*
X135617156Y-117586917D01*
X135639944Y-117540694D01*
X135649540Y-117510867D01*
X135653865Y-117480451D01*
X135658516Y-117426621D01*
X135663267Y-117353419D01*
X135667893Y-117264885D01*
X135672168Y-117165060D01*
X135675865Y-117057985D01*
X135676948Y-117020765D01*
X135680372Y-116900904D01*
X135683460Y-116805397D01*
X135686473Y-116731144D01*
X135689673Y-116675047D01*
X135693321Y-116634006D01*
X135697681Y-116604921D01*
X135703013Y-116584695D01*
X135709579Y-116570228D01*
X135715822Y-116560819D01*
X135755018Y-116529093D01*
X135804189Y-116518610D01*
X135848905Y-116529361D01*
X135875770Y-116539864D01*
X135920206Y-116554460D01*
X135973238Y-116570224D01*
X135980540Y-116572275D01*
X136158502Y-116627731D01*
X136317857Y-116689377D01*
X136445122Y-116750594D01*
X136522008Y-116792162D01*
X136578205Y-116822821D01*
X136617218Y-116844651D01*
X136642552Y-116859733D01*
X136657711Y-116870147D01*
X136666200Y-116877972D01*
X136671195Y-116884773D01*
X136689533Y-116901196D01*
X136722736Y-116922260D01*
X136738349Y-116930661D01*
X136767608Y-116950110D01*
X136808390Y-116983178D01*
X136856502Y-117025770D01*
X136907750Y-117073792D01*
X136957942Y-117123149D01*
X137002883Y-117169747D01*
X137038382Y-117209491D01*
X137060244Y-117238288D01*
X137065189Y-117249808D01*
X137076116Y-117272084D01*
X137083572Y-117276657D01*
X137098831Y-117292428D01*
X137121333Y-117327485D01*
X137148011Y-117375662D01*
X137175799Y-117430794D01*
X137201629Y-117486717D01*
X137222435Y-117537264D01*
X137235149Y-117576272D01*
X137236958Y-117584994D01*
X137245846Y-117625664D01*
X137256766Y-117657473D01*
X137258155Y-117660219D01*
X137262747Y-117681710D01*
X137266328Y-117723743D01*
X137268886Y-117780725D01*
X137270406Y-117847063D01*
X137270877Y-117917163D01*
X138468086Y-117917163D01*
X138469393Y-117858199D01*
X138493944Y-117773200D01*
X138501121Y-117758559D01*
X138528127Y-117713174D01*
X138559368Y-117675058D01*
X138601000Y-117638136D01*
X138659179Y-117596335D01*
X138678831Y-117583220D01*
X138788212Y-117526278D01*
X138910927Y-117488640D01*
X139041333Y-117470353D01*
X139173789Y-117471460D01*
X139302650Y-117492006D01*
X139422273Y-117532036D01*
X139505306Y-117576663D01*
X139603624Y-117650884D01*
X139674945Y-117728316D01*
X139719616Y-117809682D01*
X139737988Y-117895704D01*
X141020120Y-117895704D01*
X141019780Y-117894987D01*
X141019351Y-117892986D01*
X141009549Y-117877256D01*
X140983560Y-117848901D01*
X140946510Y-117812610D01*
X140903524Y-117773071D01*
X140859728Y-117734975D01*
X140820247Y-117703012D01*
X140790206Y-117681869D01*
X140785946Y-117679439D01*
X140753187Y-117660480D01*
X140705563Y-117631195D01*
X140651036Y-117596527D01*
X140623830Y-117578821D01*
X140570530Y-117544697D01*
X140521743Y-117514982D01*
X140484655Y-117493986D01*
X140472018Y-117487788D01*
X140453654Y-117478953D01*
X140427155Y-117464379D01*
X140389906Y-117442483D01*
X140339292Y-117411677D01*
X140272700Y-117370377D01*
X140187515Y-117316997D01*
X140112130Y-117269517D01*
X140056052Y-117235420D01*
X139990888Y-117197633D01*
X139938304Y-117168462D01*
X139882765Y-117137451D01*
X139827538Y-117104808D01*
X139785912Y-117078467D01*
X139744696Y-117052508D01*
X139689739Y-117020176D01*
X139631691Y-116987707D01*
X139621155Y-116982018D01*
X139568414Y-116953093D01*
X139521165Y-116926062D01*
X139487628Y-116905657D01*
X139481621Y-116901642D01*
X139444287Y-116877159D01*
X139395153Y-116847026D01*
X139340844Y-116815053D01*
X139287984Y-116785048D01*
X139243196Y-116760822D01*
X139213105Y-116746186D01*
X139207956Y-116744241D01*
X139185286Y-116732086D01*
X139179567Y-116722829D01*
X139168161Y-116710727D01*
X139138633Y-116692177D01*
X139107486Y-116676133D01*
X139054631Y-116648582D01*
X138995512Y-116614273D01*
X138959892Y-116591743D01*
X138911907Y-116561715D01*
X138850461Y-116525756D01*
X138786617Y-116490286D01*
X138767675Y-116480187D01*
X138714674Y-116451672D01*
X138669438Y-116426232D01*
X138638572Y-116407632D01*
X138630378Y-116401902D01*
X138610062Y-116387876D01*
X138574871Y-116365834D01*
X138531378Y-116339639D01*
X138486158Y-116313149D01*
X138445785Y-116290225D01*
X138416831Y-116274728D01*
X138406237Y-116270271D01*
X138393009Y-116263500D01*
X138360026Y-116244640D01*
X138310993Y-116215867D01*
X138249617Y-116179358D01*
X138179605Y-116137290D01*
X138172457Y-116132973D01*
X138101801Y-116090479D01*
X138039418Y-116053333D01*
X137989018Y-116023710D01*
X137954305Y-116003788D01*
X137938986Y-115995743D01*
X137938669Y-115995676D01*
X137923841Y-115989121D01*
X137892644Y-115972179D01*
X137852045Y-115948932D01*
X137809013Y-115923464D01*
X137770514Y-115899856D01*
X137743518Y-115882192D01*
X137737946Y-115878065D01*
X137717444Y-115864860D01*
X137678884Y-115842629D01*
X137628599Y-115814958D01*
X137593784Y-115796366D01*
X137539370Y-115767134D01*
X137492695Y-115741114D01*
X137460088Y-115721885D01*
X137449621Y-115714871D01*
X137422230Y-115696181D01*
X137378551Y-115669396D01*
X137326430Y-115638997D01*
X137273709Y-115609462D01*
X137228233Y-115585272D01*
X137197843Y-115570906D01*
X137196899Y-115570540D01*
X137170872Y-115556446D01*
X137161297Y-115543860D01*
X137149859Y-115530072D01*
X137130405Y-115521003D01*
X137104439Y-115509697D01*
X137062132Y-115488130D01*
X137010620Y-115460285D01*
X136957039Y-115430145D01*
X136908524Y-115401695D01*
X136872210Y-115378916D01*
X136859243Y-115369626D01*
X136838705Y-115356379D01*
X136800076Y-115334207D01*
X136749709Y-115306692D01*
X136715081Y-115288367D01*
X136660584Y-115259223D01*
X136613860Y-115233022D01*
X136581271Y-115213395D01*
X136570919Y-115206090D01*
X136550805Y-115192768D01*
X136512153Y-115170291D01*
X136460871Y-115142007D01*
X136413027Y-115116562D01*
X136355755Y-115086007D01*
X136306218Y-115058486D01*
X136270323Y-115037349D01*
X136255135Y-115027061D01*
X136234579Y-115013394D01*
X136195914Y-114990903D01*
X136145504Y-114963216D01*
X136110973Y-114944940D01*
X136058414Y-114916965D01*
X136015521Y-114893079D01*
X135987831Y-114876426D01*
X135980540Y-114870879D01*
X135966157Y-114861494D01*
X135932039Y-114843014D01*
X135883266Y-114818097D01*
X135824919Y-114789403D01*
X135824059Y-114788987D01*
X135674442Y-114716706D01*
X135683329Y-114571460D01*
X135687080Y-114494360D01*
X135690049Y-114403304D01*
X135691851Y-114311794D01*
X135692216Y-114258310D01*
X135692216Y-114090404D01*
X135764297Y-114067195D01*
X135816891Y-114048267D01*
X135878451Y-114023287D01*
X135922226Y-114003831D01*
X135967331Y-113983642D01*
X136003255Y-113969223D01*
X136022263Y-113963676D01*
X136022313Y-113963676D01*
X136048876Y-113955932D01*
X136094146Y-113933991D01*
X136154612Y-113899786D01*
X136226761Y-113855252D01*
X136268865Y-113827905D01*
X136319705Y-113794744D01*
X136362999Y-113767242D01*
X136392990Y-113749018D01*
X136402656Y-113743846D01*
X136422360Y-113730499D01*
X136455327Y-113702861D01*
X136497036Y-113665289D01*
X136542968Y-113622138D01*
X136588604Y-113577762D01*
X136629424Y-113536517D01*
X136660909Y-113502758D01*
X136678541Y-113480840D01*
X136680756Y-113475848D01*
X136690700Y-113455261D01*
X136714658Y-113431003D01*
X136715081Y-113430669D01*
X136739099Y-113407414D01*
X136749399Y-113388787D01*
X136749405Y-113388484D01*
X136756675Y-113373923D01*
X136759702Y-113373229D01*
X136767489Y-113367096D01*
X136782341Y-113347322D01*
X136805634Y-113311752D01*
X136838743Y-113258230D01*
X136883042Y-113184600D01*
X136923942Y-113115723D01*
X136940322Y-113081979D01*
X136961667Y-113029468D01*
X136985057Y-112965726D01*
X137004964Y-112906487D01*
X137025746Y-112842351D01*
X137044451Y-112785814D01*
X137058976Y-112743158D01*
X137067019Y-112721135D01*
X137084966Y-112661190D01*
X137099311Y-112579901D01*
X137109764Y-112483182D01*
X137116037Y-112376950D01*
X137117843Y-112267119D01*
X137114893Y-112159603D01*
X137106899Y-112060319D01*
X137101290Y-112018003D01*
X137090930Y-111956587D01*
X137080256Y-111903581D01*
X137070786Y-111866059D01*
X137065951Y-111853246D01*
X137055850Y-111829327D01*
X137040873Y-111786734D01*
X137023683Y-111733198D01*
X137017247Y-111712000D01*
X136994102Y-111644154D01*
X136965237Y-111572958D01*
X136946200Y-111533018D01*
X136511561Y-111533018D01*
X136510279Y-111658893D01*
X136485551Y-111776671D01*
X136436317Y-111888957D01*
X136361516Y-111998357D01*
X136289365Y-112078698D01*
X136182540Y-112172869D01*
X136073157Y-112240327D01*
X135958867Y-112281820D01*
X135837322Y-112298094D01*
X135706170Y-112289895D01*
X135653880Y-112280632D01*
X135544937Y-112249820D01*
X135449338Y-112202995D01*
X135357913Y-112135422D01*
X135337148Y-112117027D01*
X135240319Y-112017485D01*
X135169030Y-111916777D01*
X135121512Y-111810856D01*
X135095999Y-111695676D01*
X135090720Y-111567188D01*
X135091208Y-111554131D01*
X135096393Y-111476807D01*
X135105499Y-111416540D01*
X135120476Y-111362999D01*
X135134012Y-111327568D01*
X135180593Y-111237344D01*
X135244163Y-111146081D01*
X135318738Y-111060612D01*
X135398335Y-110987772D01*
X135476969Y-110934394D01*
X135479405Y-110933083D01*
X135538996Y-110910110D01*
X135617555Y-110892251D01*
X135706947Y-110880218D01*
X135799034Y-110874721D01*
X135885681Y-110876472D01*
X135958752Y-110886183D01*
X135973675Y-110889863D01*
X136044078Y-110913991D01*
X136111872Y-110945225D01*
X136167202Y-110978731D01*
X136186346Y-110994117D01*
X136212407Y-111015484D01*
X136230040Y-111025423D01*
X136230928Y-111025514D01*
X136247431Y-111034358D01*
X136274925Y-111056327D01*
X136306029Y-111084577D01*
X136333363Y-111112261D01*
X136349545Y-111132536D01*
X136351243Y-111137090D01*
X136358625Y-111153941D01*
X136377877Y-111185733D01*
X136401872Y-111221303D01*
X136457681Y-111315327D01*
X136492820Y-111412724D01*
X136510771Y-111523393D01*
X136511561Y-111533018D01*
X136946200Y-111533018D01*
X136936415Y-111512490D01*
X136932918Y-111506054D01*
X136902445Y-111450994D01*
X136871760Y-111395411D01*
X136849535Y-111355027D01*
X136762383Y-111220322D01*
X136652112Y-111088569D01*
X136523064Y-110963049D01*
X136379576Y-110847043D01*
X136225990Y-110743832D01*
X136066644Y-110656698D01*
X135905878Y-110588920D01*
X135789142Y-110553306D01*
X135717425Y-110536744D01*
X135643574Y-110522158D01*
X135578861Y-110511676D01*
X135551871Y-110508490D01*
X135503802Y-110502524D01*
X135467520Y-110495221D01*
X135450770Y-110488146D01*
X135450702Y-110488042D01*
X135435020Y-110483053D01*
X135399468Y-110479477D01*
X135350729Y-110477313D01*
X135295485Y-110476561D01*
X135240419Y-110477219D01*
G37*
X135240419Y-110477219D02*
X135192212Y-110479286D01*
X135157548Y-110482762D01*
X135143108Y-110487647D01*
X135143027Y-110488083D01*
X135130502Y-110495148D01*
X135097630Y-110502466D01*
X135051462Y-110508475D01*
X135050351Y-110508581D01*
X134995680Y-110515872D01*
X134925718Y-110528199D01*
X134851699Y-110543487D01*
X134814466Y-110552130D01*
X134753980Y-110568054D01*
X134697198Y-110586158D01*
X134638752Y-110608707D01*
X134573273Y-110637964D01*
X134495391Y-110676191D01*
X134399739Y-110725652D01*
X134387241Y-110732223D01*
X134323689Y-110770881D01*
X134248119Y-110825032D01*
X134166691Y-110889585D01*
X134085565Y-110959449D01*
X134010900Y-111029535D01*
X133949648Y-111093850D01*
X133902169Y-111149822D01*
X133855447Y-111208560D01*
X133812812Y-111265453D01*
X133777595Y-111315889D01*
X133753127Y-111355254D01*
X133742737Y-111378937D01*
X133742594Y-111380589D01*
X133732436Y-111397567D01*
X133730429Y-111398505D01*
X133718072Y-111413341D01*
X133698566Y-111448032D01*
X133674545Y-111496774D01*
X133648638Y-111553763D01*
X133623479Y-111613197D01*
X133601700Y-111669270D01*
X133585931Y-111716179D01*
X133585151Y-111718865D01*
X133570937Y-111764493D01*
X133557892Y-111799807D01*
X133550176Y-111815060D01*
X133542293Y-111834095D01*
X133531057Y-111872933D01*
X133518458Y-111924439D01*
X133513804Y-111945492D01*
X133500802Y-112028837D01*
X133492316Y-112131557D01*
X133488337Y-112245941D01*
X133488859Y-112364279D01*
X133493874Y-112478861D01*
X133503374Y-112581978D01*
X133514489Y-112652487D01*
X133526547Y-112708521D01*
X133537905Y-112754592D01*
X133546799Y-112783815D01*
X133549638Y-112789784D01*
X133558116Y-112807877D01*
X133572910Y-112845918D01*
X133591711Y-112897784D01*
X133606566Y-112940646D01*
X133647906Y-113044548D01*
X133699239Y-113147141D01*
X133727403Y-113194646D01*
X133761277Y-113248668D01*
X133791364Y-113297835D01*
X133813350Y-113335039D01*
X133820564Y-113348095D01*
X133841989Y-113380641D01*
X133878309Y-113426963D01*
X133924735Y-113481692D01*
X133976477Y-113539457D01*
X134028747Y-113594890D01*
X134076756Y-113642619D01*
X134109848Y-113672464D01*
X134166406Y-113716879D01*
X134235326Y-113766511D01*
X134310902Y-113817699D01*
X134387428Y-113866783D01*
X134459198Y-113910100D01*
X134520505Y-113943989D01*
X134565163Y-113964610D01*
X134607225Y-113981476D01*
X134637810Y-113995842D01*
X134648580Y-114003007D01*
X134664017Y-114011075D01*
X134699583Y-114024567D01*
X134749046Y-114041208D01*
X134778434Y-114050425D01*
X134831971Y-114067041D01*
X134874268Y-114080597D01*
X134899408Y-114089174D01*
X134903772Y-114091066D01*
X134904910Y-114105046D01*
X134906715Y-114142569D01*
X134909033Y-114199732D01*
X134911712Y-114272630D01*
X134914598Y-114357359D01*
X134916169Y-114406056D01*
X134926041Y-114718004D01*
X134770237Y-114794457D01*
X134692371Y-114833901D01*
X134606393Y-114879419D01*
X134524580Y-114924429D01*
X134477135Y-114951653D01*
X134410516Y-114990291D01*
X134341172Y-115029617D01*
X134278998Y-115064058D01*
X134246851Y-115081327D01*
X134186819Y-115114225D01*
X134123124Y-115151153D01*
X134075778Y-115180208D01*
X134017993Y-115215218D01*
X133953140Y-115251680D01*
X133914765Y-115271795D01*
X133857761Y-115301959D01*
X133798277Y-115335800D01*
X133763189Y-115357194D01*
X133640283Y-115431725D01*
X133513363Y-115502053D01*
X133495459Y-115511397D01*
X133458805Y-115531501D01*
X133406205Y-115561820D01*
X133345025Y-115598051D01*
X133289513Y-115631670D01*
X133224787Y-115670717D01*
X133160032Y-115708744D01*
X133103461Y-115740982D01*
X133068336Y-115760068D01*
X133011759Y-115791091D01*
X132949836Y-115827369D01*
X132915349Y-115848744D01*
X132861478Y-115881843D01*
X132798461Y-115918615D01*
X132749875Y-115945668D01*
X132701450Y-115972578D01*
X132638250Y-116008773D01*
X132568945Y-116049243D01*
X132510353Y-116084078D01*
X132452378Y-116118174D01*
X132402193Y-116146353D01*
X132364811Y-116165892D01*
X132345244Y-116174073D01*
X132344382Y-116174162D01*
X132329319Y-116183389D01*
X132328432Y-116187892D01*
X132317312Y-116200073D01*
X132307838Y-116201622D01*
X132289559Y-116208545D01*
X132287243Y-116214426D01*
X132275850Y-116228116D01*
X132257611Y-116236636D01*
X132232789Y-116247826D01*
X132191307Y-116269793D01*
X132139771Y-116298736D01*
X132084792Y-116330854D01*
X132032978Y-116362344D01*
X131990938Y-116389407D01*
X131985189Y-116393327D01*
X131957215Y-116410811D01*
X131913154Y-116436375D01*
X131861207Y-116465295D01*
X131845655Y-116473733D01*
X131788282Y-116505552D01*
X131731956Y-116538272D01*
X131687299Y-116565695D01*
X131680899Y-116569869D01*
X131630403Y-116601489D01*
X131575822Y-116633095D01*
X131559567Y-116641900D01*
X131527880Y-116659529D01*
X131477813Y-116688464D01*
X131414437Y-116725725D01*
X131342823Y-116768334D01*
X131275553Y-116808770D01*
X131205634Y-116850781D01*
X131143937Y-116887415D01*
X131094235Y-116916468D01*
X131060298Y-116935737D01*
X131045899Y-116943017D01*
X131045786Y-116943027D01*
X131030033Y-116949985D01*
X130995740Y-116969054D01*
X130947484Y-116997532D01*
X130889845Y-117032714D01*
X130827401Y-117071896D01*
X130825027Y-117073407D01*
X130777442Y-117102824D01*
X130730636Y-117130364D01*
X130708324Y-117142759D01*
X130669103Y-117164730D01*
X130613074Y-117197457D01*
X130546537Y-117237119D01*
X130475790Y-117279897D01*
X130407134Y-117321971D01*
X130346867Y-117359521D01*
X130301289Y-117388728D01*
X130287654Y-117397853D01*
X130247142Y-117423859D01*
X130210432Y-117444548D01*
X130198410Y-117450194D01*
X130170502Y-117464100D01*
X130128559Y-117487672D01*
X130081925Y-117515648D01*
X130028227Y-117548349D01*
X129963354Y-117587046D01*
X129900009Y-117624173D01*
X129890774Y-117629514D01*
X129804231Y-117683875D01*
X129728943Y-117741959D01*
X129661615Y-117807715D01*
X129598950Y-117885093D01*
X129537655Y-117978041D01*
X129474433Y-118090510D01*
X129424797Y-118187964D01*
X129349081Y-118341388D01*
X129349081Y-120234361D01*
X129406036Y-120356397D01*
X129460722Y-120463450D01*
X129523908Y-120570448D01*
X129590668Y-120669781D01*
X129656074Y-120753837D01*
X129682456Y-120783286D01*
X129726055Y-120823732D01*
X129786922Y-120872651D01*
X129858310Y-120925199D01*
X129933475Y-120976530D01*
X130005672Y-121021800D01*
X130047555Y-121045541D01*
X130081693Y-121064764D01*
X130129508Y-121092882D01*
X130185229Y-121126362D01*
X130243087Y-121161670D01*
X130297310Y-121195273D01*
X130342130Y-121223638D01*
X130371776Y-121243231D01*
X130378811Y-121248392D01*
X130400390Y-121262668D01*
X130438741Y-121285205D01*
X130486283Y-121311578D01*
X130495513Y-121316542D01*
X130558214Y-121351630D01*
X130627836Y-121392912D01*
X130685363Y-121428934D01*
X130743700Y-121465613D01*
X130806502Y-121503137D01*
X130860133Y-121533362D01*
X130900074Y-121555572D01*
X130957313Y-121588454D01*
X131025686Y-121628415D01*
X131099027Y-121671863D01*
X131140912Y-121696946D01*
X131207086Y-121736504D01*
X131264851Y-121770579D01*
X131310213Y-121796852D01*
X131339179Y-121813002D01*
X131347803Y-121817081D01*
X131361464Y-121823826D01*
X131394196Y-121842373D01*
X131441648Y-121870190D01*
X131499470Y-121904747D01*
X131524799Y-121920054D01*
X131586005Y-121956693D01*
X131639079Y-121987584D01*
X131679529Y-122010180D01*
X131702860Y-122021933D01*
X131706370Y-122023027D01*
X131723340Y-122030050D01*
X131755311Y-122048249D01*
X131786421Y-122067894D01*
X131942885Y-122163809D01*
X132053692Y-122223325D01*
X132091314Y-122244201D01*
X132116302Y-122261861D01*
X132122486Y-122269960D01*
X132133914Y-122282884D01*
X132153378Y-122291664D01*
X132180063Y-122303177D01*
X132222973Y-122324959D01*
X132274886Y-122352980D01*
X132328586Y-122383210D01*
X132376852Y-122411618D01*
X132412465Y-122434175D01*
X132424540Y-122443040D01*
X132446765Y-122457588D01*
X132485553Y-122479297D01*
X132532657Y-122503558D01*
X132534378Y-122504409D01*
X132592211Y-122534656D01*
X132651871Y-122568553D01*
X132692270Y-122593529D01*
X132741975Y-122624339D01*
X132801956Y-122658947D01*
X132850162Y-122685064D01*
X132907007Y-122715739D01*
X132973655Y-122753314D01*
X133036604Y-122790161D01*
X133042378Y-122793635D01*
X133098675Y-122827130D01*
X133154685Y-122859665D01*
X133199941Y-122885175D01*
X133207058Y-122889050D01*
X133248990Y-122913559D01*
X133284414Y-122937468D01*
X133295458Y-122946352D01*
X133321485Y-122964635D01*
X133338344Y-122970379D01*
X133355502Y-122977141D01*
X133391237Y-122995678D01*
X133440746Y-123023360D01*
X133499228Y-123057561D01*
X133515473Y-123067295D01*
X133577081Y-123103937D01*
X133632428Y-123136011D01*
X133676178Y-123160485D01*
X133702998Y-123174326D01*
X133706069Y-123175633D01*
X133728862Y-123186955D01*
X133769408Y-123209510D01*
X133822097Y-123240095D01*
X133881320Y-123275510D01*
X133885089Y-123277798D01*
X133942547Y-123312113D01*
X133991905Y-123340481D01*
X134028272Y-123360169D01*
X134046757Y-123368444D01*
X134047519Y-123368541D01*
X134065206Y-123375521D01*
X134097962Y-123393660D01*
X134131565Y-123414489D01*
X134186507Y-123448857D01*
X134248581Y-123485789D01*
X134311877Y-123521983D01*
X134370490Y-123554139D01*
X134418510Y-123578954D01*
X134450029Y-123593127D01*
X134453108Y-123594175D01*
X134477058Y-123606307D01*
X134484000Y-123616417D01*
X134495443Y-123629236D01*
X134523893Y-123645460D01*
X134533629Y-123649774D01*
X134566238Y-123665527D01*
X134614811Y-123691564D01*
X134671905Y-123723813D01*
X134712815Y-123747819D01*
X134795089Y-123793784D01*
X134870959Y-123828134D01*
X134947154Y-123852584D01*
X135030403Y-123868850D01*
X135127433Y-123878646D01*
X135244974Y-123883687D01*
X135246000Y-123883712D01*
X135326419Y-123884674D01*
X135404500Y-123883797D01*
X135472637Y-123881288D01*
X135523219Y-123877353D01*
X135533790Y-123875932D01*
X135610291Y-123861698D01*
X135679944Y-123843079D01*
X135749316Y-123817501D01*
X135824975Y-123782391D01*
X135913487Y-123735174D01*
X135959946Y-123708898D01*
X136036883Y-123665147D01*
X136116494Y-123620415D01*
X136190879Y-123579104D01*
X136252138Y-123545621D01*
X136268865Y-123536647D01*
X136327350Y-123504655D01*
X136383437Y-123472537D01*
X136427959Y-123445593D01*
X136440486Y-123437443D01*
X136482124Y-123411639D01*
X136536104Y-123381173D01*
X136584648Y-123355752D01*
X136642377Y-123325249D01*
X136701951Y-123291235D01*
X136742540Y-123266143D01*
X136792604Y-123235565D01*
X136852982Y-123201760D01*
X136900432Y-123177165D01*
X136947682Y-123152882D01*
X136986907Y-123130967D01*
X137009859Y-123116034D01*
X137010270Y-123115692D01*
X137033298Y-123099593D01*
X137072150Y-123075734D01*
X137120745Y-123047491D01*
X137173003Y-123018240D01*
X137222841Y-122991356D01*
X137264179Y-122970214D01*
X137290935Y-122958190D01*
X137296791Y-122956649D01*
X137311548Y-122947838D01*
X137312324Y-122943853D01*
X137323727Y-122932123D01*
X137354041Y-122912232D01*
X137397423Y-122887902D01*
X137411865Y-122880420D01*
X137470736Y-122849094D01*
X137530605Y-122815021D01*
X137578810Y-122785413D01*
X137580054Y-122784597D01*
X137625590Y-122756403D01*
X137684506Y-122722336D01*
X137745625Y-122688819D01*
X137758540Y-122682010D01*
X137810120Y-122654383D01*
X137853894Y-122629716D01*
X137882943Y-122611954D01*
X137888973Y-122607600D01*
X137917676Y-122587758D01*
X137965765Y-122558761D01*
X138028011Y-122523621D01*
X138099184Y-122485352D01*
X138120284Y-122474338D01*
X138161571Y-122451663D01*
X138218890Y-122418473D01*
X138285095Y-122378981D01*
X138353044Y-122337400D01*
X138362648Y-122331428D01*
X138427879Y-122291456D01*
X138490133Y-122254521D01*
X138543117Y-122224278D01*
X138580536Y-122204380D01*
X138585754Y-122201891D01*
X138624634Y-122181870D01*
X138676953Y-122152133D01*
X138733248Y-122118116D01*
X138750511Y-122107245D01*
X138812038Y-122069220D01*
X138878319Y-122030096D01*
X138936754Y-121997278D01*
X138946162Y-121992244D01*
X138998242Y-121963660D01*
X139063029Y-121926623D01*
X139129940Y-121887228D01*
X139160265Y-121868930D01*
X139215004Y-121836359D01*
X139263725Y-121808800D01*
X139300045Y-121789786D01*
X139314724Y-121783436D01*
X139338029Y-121770837D01*
X139344324Y-121760537D01*
X139355778Y-121747130D01*
X139384239Y-121730607D01*
X139393756Y-121726378D01*
X139424880Y-121711026D01*
X139472574Y-121684715D01*
X139530221Y-121651199D01*
X139588349Y-121615997D01*
X139647295Y-121580183D01*
X139700554Y-121548956D01*
X139742284Y-121525669D01*
X139766645Y-121513672D01*
X139766678Y-121513660D01*
X139793780Y-121500322D01*
X139835603Y-121476386D01*
X139884047Y-121446529D01*
X139894355Y-121439912D01*
X139955563Y-121401798D01*
X140023787Y-121361538D01*
X140081918Y-121329126D01*
X140128806Y-121302682D01*
X140166884Y-121278595D01*
X140188825Y-121261545D01*
X140190216Y-121259956D01*
X140208876Y-121243199D01*
X140216877Y-121240433D01*
X140234309Y-121233481D01*
X140270430Y-121214359D01*
X140320780Y-121185664D01*
X140380898Y-121149995D01*
X140446324Y-121109948D01*
X140511351Y-121068922D01*
X140557525Y-121040148D01*
X140597218Y-121016907D01*
X140622753Y-121003670D01*
X140624794Y-121002857D01*
X140646145Y-120991744D01*
X140684015Y-120968984D01*
X140732219Y-120938372D01*
X140764620Y-120917088D01*
X140888848Y-120818507D01*
X140999383Y-120698652D01*
X141093898Y-120561243D01*
X141170066Y-120410002D01*
X141225561Y-120248652D01*
X141249086Y-120142192D01*
X141253396Y-120113270D01*
X141256999Y-120078882D01*
X141259928Y-120036790D01*
X141262216Y-119984757D01*
X141263898Y-119920544D01*
X141265006Y-119841915D01*
X141265575Y-119746632D01*
X141265637Y-119632457D01*
X141265226Y-119497152D01*
X141264375Y-119338481D01*
X141263363Y-119187838D01*
X141257360Y-118350325D01*
X141195459Y-118219892D01*
X141161840Y-118151945D01*
X141124469Y-118080933D01*
X141089490Y-118018386D01*
X141076455Y-117996542D01*
X141049626Y-117951633D01*
X141029565Y-117915659D01*
X141020120Y-117895704D01*
X139737988Y-117895704D01*
X139730409Y-117987104D01*
X139720939Y-118022941D01*
X139680797Y-118107267D01*
X139617126Y-118182746D01*
X139532980Y-118247412D01*
X139431415Y-118299300D01*
X139315482Y-118336444D01*
X139204379Y-118355335D01*
X139095128Y-118361934D01*
X138988338Y-118359535D01*
X138893754Y-118348540D01*
X138858293Y-118341027D01*
X138760650Y-118306805D01*
X138669923Y-118256806D01*
X138591162Y-118195039D01*
X138529419Y-118125508D01*
X138489746Y-118052221D01*
X138488019Y-118047330D01*
X138467320Y-117951739D01*
X138468086Y-117917163D01*
X137270877Y-117917163D01*
X137270284Y-117985430D01*
X137268615Y-118046272D01*
X137265856Y-118094094D01*
X137261995Y-118123303D01*
X137259258Y-118129504D01*
X137249961Y-118146703D01*
X137241752Y-118180194D01*
X137240238Y-118190097D01*
X137225955Y-118245802D01*
X137197959Y-118315538D01*
X137159913Y-118392072D01*
X137115475Y-118468170D01*
X137068306Y-118536597D01*
X137058599Y-118549061D01*
X137022629Y-118591293D01*
X136977196Y-118640460D01*
X136926309Y-118692707D01*
X136873973Y-118744177D01*
X136824195Y-118791016D01*
X136780983Y-118829367D01*
X136748342Y-118855376D01*
X136730280Y-118865185D01*
X136730085Y-118865189D01*
X136710964Y-118873842D01*
X136682574Y-118895322D01*
X136674834Y-118902248D01*
X136646983Y-118923023D01*
X136600157Y-118952661D01*
X136540042Y-118987943D01*
X136472321Y-119025652D01*
X136402680Y-119062568D01*
X136336802Y-119095475D01*
X136316919Y-119104877D01*
X136240230Y-119137117D01*
X136149459Y-119170100D01*
X136057479Y-119199346D01*
X136001135Y-119214733D01*
X135949214Y-119228448D01*
X135904946Y-119241512D01*
X135877799Y-119251128D01*
X135877567Y-119251233D01*
X135843278Y-119260418D01*
X135785604Y-119268489D01*
X135708600Y-119275336D01*
X135616324Y-119280849D01*
X135512830Y-119284918D01*
X135402176Y-119287434D01*
X135288417Y-119288286D01*
X135175609Y-119287364D01*
X135067808Y-119284559D01*
X134969071Y-119279761D01*
X134928777Y-119276930D01*
X134859586Y-119270714D01*
X134798511Y-119263764D01*
X134751768Y-119256887D01*
X134725567Y-119250892D01*
X134724270Y-119250351D01*
X134696945Y-119240651D01*
X134652865Y-119227924D01*
X134606922Y-119216236D01*
X134437604Y-119165143D01*
X134260646Y-119091195D01*
X134155516Y-119038121D01*
X134098788Y-119008102D01*
X134050923Y-118983576D01*
X134017051Y-118967119D01*
X134002405Y-118961298D01*
X133983856Y-118952543D01*
X133949404Y-118928623D01*
X133903271Y-118893055D01*
X133849678Y-118849355D01*
X133792847Y-118801040D01*
X133737001Y-118751626D01*
X133686360Y-118704631D01*
X133645781Y-118664237D01*
X133596763Y-118610820D01*
X133549888Y-118556252D01*
X133508740Y-118505096D01*
X133476904Y-118461920D01*
X133457966Y-118431288D01*
X133454270Y-118420368D01*
X133448440Y-118405675D01*
X133432803Y-118372402D01*
X133410140Y-118326375D01*
X133396471Y-118299274D01*
X133338671Y-118185568D01*
X133338119Y-117902808D01*
X133338716Y-117792019D01*
X133340929Y-117703088D01*
X133344684Y-117637613D01*
X133349905Y-117597187D01*
X133352968Y-117587024D01*
X133401957Y-117483892D01*
X133443555Y-117401278D01*
X133480656Y-117334243D01*
X133516152Y-117277844D01*
X133552936Y-117227139D01*
X133590765Y-117180847D01*
X133632407Y-117134920D01*
X133681456Y-117085153D01*
X133733558Y-117035455D01*
X133784358Y-116989740D01*
X133829502Y-116951918D01*
X133864636Y-116925901D01*
X133885406Y-116915601D01*
X133886074Y-116915568D01*
X133901660Y-116906264D01*
X133918880Y-116889023D01*
X133939621Y-116872544D01*
X133979263Y-116847278D01*
X134032115Y-116816661D01*
X134092489Y-116784131D01*
X134092702Y-116784020D01*
X134151791Y-116753105D01*
X134202383Y-116726225D01*
X134239253Y-116706186D01*
X134257178Y-116695790D01*
X134257459Y-116695591D01*
X134282213Y-116683333D01*
X134327774Y-116665878D01*
X134388415Y-116645100D01*
X134458411Y-116622873D01*
X134532033Y-116601070D01*
X134603556Y-116581567D01*
X134614432Y-116578782D01*
X134675620Y-116562538D01*
X134729513Y-116546890D01*
X134768737Y-116534047D01*
X134782621Y-116528379D01*
X134816388Y-116519910D01*
X134845053Y-116529645D01*
X134863988Y-116540872D01*
X134879157Y-116554128D01*
X134891082Y-116572487D01*
X134900289Y-116599019D01*
X134907301Y-116636796D01*
X134912641Y-116688889D01*
X134916834Y-116758370D01*
X134920402Y-116848310D01*
X134923871Y-116961782D01*
X134924885Y-116997807D01*
X134928888Y-117134363D01*
X134932718Y-117246331D01*
X134936636Y-117336577D01*
X134940906Y-117407969D01*
X134945792Y-117463373D01*
X134951557Y-117505656D01*
X134958464Y-117537685D01*
X134966776Y-117562329D01*
X134976758Y-117582452D01*
X134978909Y-117586074D01*
X135015797Y-117630138D01*
X135069404Y-117674583D01*
X135129979Y-117712487D01*
X135187770Y-117736930D01*
X135193728Y-117738547D01*
X135274830Y-117750943D01*
X135354690Y-117748797D01*
X135425925Y-117733141D01*
X135481147Y-117705008D01*
X135490659Y-117697020D01*
X135517007Y-117677553D01*
X135535491Y-117670703D01*
X135559860Y-117659026D01*
X135588771Y-117628729D01*
X135617156Y-117586917D01*
X135639944Y-117540694D01*
X135649540Y-117510867D01*
X135653865Y-117480451D01*
X135658516Y-117426621D01*
X135663267Y-117353419D01*
X135667893Y-117264885D01*
X135672168Y-117165060D01*
X135675865Y-117057985D01*
X135676948Y-117020765D01*
X135680372Y-116900904D01*
X135683460Y-116805397D01*
X135686473Y-116731144D01*
X135689673Y-116675047D01*
X135693321Y-116634006D01*
X135697681Y-116604921D01*
X135703013Y-116584695D01*
X135709579Y-116570228D01*
X135715822Y-116560819D01*
X135755018Y-116529093D01*
X135804189Y-116518610D01*
X135848905Y-116529361D01*
X135875770Y-116539864D01*
X135920206Y-116554460D01*
X135973238Y-116570224D01*
X135980540Y-116572275D01*
X136158502Y-116627731D01*
X136317857Y-116689377D01*
X136445122Y-116750594D01*
X136522008Y-116792162D01*
X136578205Y-116822821D01*
X136617218Y-116844651D01*
X136642552Y-116859733D01*
X136657711Y-116870147D01*
X136666200Y-116877972D01*
X136671195Y-116884773D01*
X136689533Y-116901196D01*
X136722736Y-116922260D01*
X136738349Y-116930661D01*
X136767608Y-116950110D01*
X136808390Y-116983178D01*
X136856502Y-117025770D01*
X136907750Y-117073792D01*
X136957942Y-117123149D01*
X137002883Y-117169747D01*
X137038382Y-117209491D01*
X137060244Y-117238288D01*
X137065189Y-117249808D01*
X137076116Y-117272084D01*
X137083572Y-117276657D01*
X137098831Y-117292428D01*
X137121333Y-117327485D01*
X137148011Y-117375662D01*
X137175799Y-117430794D01*
X137201629Y-117486717D01*
X137222435Y-117537264D01*
X137235149Y-117576272D01*
X137236958Y-117584994D01*
X137245846Y-117625664D01*
X137256766Y-117657473D01*
X137258155Y-117660219D01*
X137262747Y-117681710D01*
X137266328Y-117723743D01*
X137268886Y-117780725D01*
X137270406Y-117847063D01*
X137270877Y-117917163D01*
X138468086Y-117917163D01*
X138469393Y-117858199D01*
X138493944Y-117773200D01*
X138501121Y-117758559D01*
X138528127Y-117713174D01*
X138559368Y-117675058D01*
X138601000Y-117638136D01*
X138659179Y-117596335D01*
X138678831Y-117583220D01*
X138788212Y-117526278D01*
X138910927Y-117488640D01*
X139041333Y-117470353D01*
X139173789Y-117471460D01*
X139302650Y-117492006D01*
X139422273Y-117532036D01*
X139505306Y-117576663D01*
X139603624Y-117650884D01*
X139674945Y-117728316D01*
X139719616Y-117809682D01*
X139737988Y-117895704D01*
X141020120Y-117895704D01*
X141019780Y-117894987D01*
X141019351Y-117892986D01*
X141009549Y-117877256D01*
X140983560Y-117848901D01*
X140946510Y-117812610D01*
X140903524Y-117773071D01*
X140859728Y-117734975D01*
X140820247Y-117703012D01*
X140790206Y-117681869D01*
X140785946Y-117679439D01*
X140753187Y-117660480D01*
X140705563Y-117631195D01*
X140651036Y-117596527D01*
X140623830Y-117578821D01*
X140570530Y-117544697D01*
X140521743Y-117514982D01*
X140484655Y-117493986D01*
X140472018Y-117487788D01*
X140453654Y-117478953D01*
X140427155Y-117464379D01*
X140389906Y-117442483D01*
X140339292Y-117411677D01*
X140272700Y-117370377D01*
X140187515Y-117316997D01*
X140112130Y-117269517D01*
X140056052Y-117235420D01*
X139990888Y-117197633D01*
X139938304Y-117168462D01*
X139882765Y-117137451D01*
X139827538Y-117104808D01*
X139785912Y-117078467D01*
X139744696Y-117052508D01*
X139689739Y-117020176D01*
X139631691Y-116987707D01*
X139621155Y-116982018D01*
X139568414Y-116953093D01*
X139521165Y-116926062D01*
X139487628Y-116905657D01*
X139481621Y-116901642D01*
X139444287Y-116877159D01*
X139395153Y-116847026D01*
X139340844Y-116815053D01*
X139287984Y-116785048D01*
X139243196Y-116760822D01*
X139213105Y-116746186D01*
X139207956Y-116744241D01*
X139185286Y-116732086D01*
X139179567Y-116722829D01*
X139168161Y-116710727D01*
X139138633Y-116692177D01*
X139107486Y-116676133D01*
X139054631Y-116648582D01*
X138995512Y-116614273D01*
X138959892Y-116591743D01*
X138911907Y-116561715D01*
X138850461Y-116525756D01*
X138786617Y-116490286D01*
X138767675Y-116480187D01*
X138714674Y-116451672D01*
X138669438Y-116426232D01*
X138638572Y-116407632D01*
X138630378Y-116401902D01*
X138610062Y-116387876D01*
X138574871Y-116365834D01*
X138531378Y-116339639D01*
X138486158Y-116313149D01*
X138445785Y-116290225D01*
X138416831Y-116274728D01*
X138406237Y-116270271D01*
X138393009Y-116263500D01*
X138360026Y-116244640D01*
X138310993Y-116215867D01*
X138249617Y-116179358D01*
X138179605Y-116137290D01*
X138172457Y-116132973D01*
X138101801Y-116090479D01*
X138039418Y-116053333D01*
X137989018Y-116023710D01*
X137954305Y-116003788D01*
X137938986Y-115995743D01*
X137938669Y-115995676D01*
X137923841Y-115989121D01*
X137892644Y-115972179D01*
X137852045Y-115948932D01*
X137809013Y-115923464D01*
X137770514Y-115899856D01*
X137743518Y-115882192D01*
X137737946Y-115878065D01*
X137717444Y-115864860D01*
X137678884Y-115842629D01*
X137628599Y-115814958D01*
X137593784Y-115796366D01*
X137539370Y-115767134D01*
X137492695Y-115741114D01*
X137460088Y-115721885D01*
X137449621Y-115714871D01*
X137422230Y-115696181D01*
X137378551Y-115669396D01*
X137326430Y-115638997D01*
X137273709Y-115609462D01*
X137228233Y-115585272D01*
X137197843Y-115570906D01*
X137196899Y-115570540D01*
X137170872Y-115556446D01*
X137161297Y-115543860D01*
X137149859Y-115530072D01*
X137130405Y-115521003D01*
X137104439Y-115509697D01*
X137062132Y-115488130D01*
X137010620Y-115460285D01*
X136957039Y-115430145D01*
X136908524Y-115401695D01*
X136872210Y-115378916D01*
X136859243Y-115369626D01*
X136838705Y-115356379D01*
X136800076Y-115334207D01*
X136749709Y-115306692D01*
X136715081Y-115288367D01*
X136660584Y-115259223D01*
X136613860Y-115233022D01*
X136581271Y-115213395D01*
X136570919Y-115206090D01*
X136550805Y-115192768D01*
X136512153Y-115170291D01*
X136460871Y-115142007D01*
X136413027Y-115116562D01*
X136355755Y-115086007D01*
X136306218Y-115058486D01*
X136270323Y-115037349D01*
X136255135Y-115027061D01*
X136234579Y-115013394D01*
X136195914Y-114990903D01*
X136145504Y-114963216D01*
X136110973Y-114944940D01*
X136058414Y-114916965D01*
X136015521Y-114893079D01*
X135987831Y-114876426D01*
X135980540Y-114870879D01*
X135966157Y-114861494D01*
X135932039Y-114843014D01*
X135883266Y-114818097D01*
X135824919Y-114789403D01*
X135824059Y-114788987D01*
X135674442Y-114716706D01*
X135683329Y-114571460D01*
X135687080Y-114494360D01*
X135690049Y-114403304D01*
X135691851Y-114311794D01*
X135692216Y-114258310D01*
X135692216Y-114090404D01*
X135764297Y-114067195D01*
X135816891Y-114048267D01*
X135878451Y-114023287D01*
X135922226Y-114003831D01*
X135967331Y-113983642D01*
X136003255Y-113969223D01*
X136022263Y-113963676D01*
X136022313Y-113963676D01*
X136048876Y-113955932D01*
X136094146Y-113933991D01*
X136154612Y-113899786D01*
X136226761Y-113855252D01*
X136268865Y-113827905D01*
X136319705Y-113794744D01*
X136362999Y-113767242D01*
X136392990Y-113749018D01*
X136402656Y-113743846D01*
X136422360Y-113730499D01*
X136455327Y-113702861D01*
X136497036Y-113665289D01*
X136542968Y-113622138D01*
X136588604Y-113577762D01*
X136629424Y-113536517D01*
X136660909Y-113502758D01*
X136678541Y-113480840D01*
X136680756Y-113475848D01*
X136690700Y-113455261D01*
X136714658Y-113431003D01*
X136715081Y-113430669D01*
X136739099Y-113407414D01*
X136749399Y-113388787D01*
X136749405Y-113388484D01*
X136756675Y-113373923D01*
X136759702Y-113373229D01*
X136767489Y-113367096D01*
X136782341Y-113347322D01*
X136805634Y-113311752D01*
X136838743Y-113258230D01*
X136883042Y-113184600D01*
X136923942Y-113115723D01*
X136940322Y-113081979D01*
X136961667Y-113029468D01*
X136985057Y-112965726D01*
X137004964Y-112906487D01*
X137025746Y-112842351D01*
X137044451Y-112785814D01*
X137058976Y-112743158D01*
X137067019Y-112721135D01*
X137084966Y-112661190D01*
X137099311Y-112579901D01*
X137109764Y-112483182D01*
X137116037Y-112376950D01*
X137117843Y-112267119D01*
X137114893Y-112159603D01*
X137106899Y-112060319D01*
X137101290Y-112018003D01*
X137090930Y-111956587D01*
X137080256Y-111903581D01*
X137070786Y-111866059D01*
X137065951Y-111853246D01*
X137055850Y-111829327D01*
X137040873Y-111786734D01*
X137023683Y-111733198D01*
X137017247Y-111712000D01*
X136994102Y-111644154D01*
X136965237Y-111572958D01*
X136946200Y-111533018D01*
X136511561Y-111533018D01*
X136510279Y-111658893D01*
X136485551Y-111776671D01*
X136436317Y-111888957D01*
X136361516Y-111998357D01*
X136289365Y-112078698D01*
X136182540Y-112172869D01*
X136073157Y-112240327D01*
X135958867Y-112281820D01*
X135837322Y-112298094D01*
X135706170Y-112289895D01*
X135653880Y-112280632D01*
X135544937Y-112249820D01*
X135449338Y-112202995D01*
X135357913Y-112135422D01*
X135337148Y-112117027D01*
X135240319Y-112017485D01*
X135169030Y-111916777D01*
X135121512Y-111810856D01*
X135095999Y-111695676D01*
X135090720Y-111567188D01*
X135091208Y-111554131D01*
X135096393Y-111476807D01*
X135105499Y-111416540D01*
X135120476Y-111362999D01*
X135134012Y-111327568D01*
X135180593Y-111237344D01*
X135244163Y-111146081D01*
X135318738Y-111060612D01*
X135398335Y-110987772D01*
X135476969Y-110934394D01*
X135479405Y-110933083D01*
X135538996Y-110910110D01*
X135617555Y-110892251D01*
X135706947Y-110880218D01*
X135799034Y-110874721D01*
X135885681Y-110876472D01*
X135958752Y-110886183D01*
X135973675Y-110889863D01*
X136044078Y-110913991D01*
X136111872Y-110945225D01*
X136167202Y-110978731D01*
X136186346Y-110994117D01*
X136212407Y-111015484D01*
X136230040Y-111025423D01*
X136230928Y-111025514D01*
X136247431Y-111034358D01*
X136274925Y-111056327D01*
X136306029Y-111084577D01*
X136333363Y-111112261D01*
X136349545Y-111132536D01*
X136351243Y-111137090D01*
X136358625Y-111153941D01*
X136377877Y-111185733D01*
X136401872Y-111221303D01*
X136457681Y-111315327D01*
X136492820Y-111412724D01*
X136510771Y-111523393D01*
X136511561Y-111533018D01*
X136946200Y-111533018D01*
X136936415Y-111512490D01*
X136932918Y-111506054D01*
X136902445Y-111450994D01*
X136871760Y-111395411D01*
X136849535Y-111355027D01*
X136762383Y-111220322D01*
X136652112Y-111088569D01*
X136523064Y-110963049D01*
X136379576Y-110847043D01*
X136225990Y-110743832D01*
X136066644Y-110656698D01*
X135905878Y-110588920D01*
X135789142Y-110553306D01*
X135717425Y-110536744D01*
X135643574Y-110522158D01*
X135578861Y-110511676D01*
X135551871Y-110508490D01*
X135503802Y-110502524D01*
X135467520Y-110495221D01*
X135450770Y-110488146D01*
X135450702Y-110488042D01*
X135435020Y-110483053D01*
X135399468Y-110479477D01*
X135350729Y-110477313D01*
X135295485Y-110476561D01*
X135240419Y-110477219D01*
G36*
X164588619Y-116389720D02*
G01*
X164588617Y-116974315D01*
X164588616Y-117514589D01*
X164588656Y-118012406D01*
X164588774Y-118469625D01*
X164589009Y-118888110D01*
X164589398Y-119269722D01*
X164589981Y-119616323D01*
X164590795Y-119929774D01*
X164591877Y-120211938D01*
X164593267Y-120464676D01*
X164595003Y-120689849D01*
X164597122Y-120889321D01*
X164599662Y-121064951D01*
X164602663Y-121218603D01*
X164606161Y-121352137D01*
X164610196Y-121467417D01*
X164614805Y-121566302D01*
X164620026Y-121650656D01*
X164625897Y-121722340D01*
X164632458Y-121783216D01*
X164639745Y-121835145D01*
X164647796Y-121879989D01*
X164656651Y-121919611D01*
X164666347Y-121955871D01*
X164676922Y-121990632D01*
X164688415Y-122025755D01*
X164700863Y-122063102D01*
X164705082Y-122075909D01*
X164753597Y-122196543D01*
X164824733Y-122338319D01*
X164910577Y-122487728D01*
X165003222Y-122631262D01*
X165094756Y-122755411D01*
X165122536Y-122788856D01*
X165351514Y-123019669D01*
X165610356Y-123215398D01*
X165898304Y-123375529D01*
X166124091Y-123468803D01*
X166355000Y-123551797D01*
X166816818Y-123552744D01*
X166975236Y-123552822D01*
X167096119Y-123551747D01*
X167188116Y-123548659D01*
X167259873Y-123542697D01*
X167320037Y-123533003D01*
X167377256Y-123518717D01*
X167440176Y-123498979D01*
X167474909Y-123487327D01*
X167629448Y-123427766D01*
X167797097Y-123350989D01*
X167961444Y-123265299D01*
X168106076Y-123178998D01*
X168167636Y-123136932D01*
X168256551Y-123064571D01*
X168360293Y-122968299D01*
X168465974Y-122861145D01*
X168560707Y-122756137D01*
X168627610Y-122671934D01*
X168781008Y-122423671D01*
X168903342Y-122153756D01*
X168992311Y-121870826D01*
X169045615Y-121583517D01*
X169060956Y-121300463D01*
X169046524Y-121098902D01*
X169019131Y-120938277D01*
X168979030Y-120766373D01*
X168930463Y-120598122D01*
X168877673Y-120448454D01*
X168833207Y-120348090D01*
X168676410Y-120088361D01*
X168480715Y-119844863D01*
X168252573Y-119625079D01*
X168119090Y-119519577D01*
X168012077Y-119442730D01*
X167923457Y-119385116D01*
X167839180Y-119339507D01*
X167745198Y-119298678D01*
X167627461Y-119255402D01*
X167560993Y-119232526D01*
X167379405Y-119176069D01*
X167216415Y-119138871D01*
X167052699Y-119117781D01*
X166868932Y-119109647D01*
X166805273Y-119109263D01*
X166691870Y-119113348D01*
X166565394Y-119124350D01*
X166436163Y-119140634D01*
X166314490Y-119160564D01*
X166210691Y-119182505D01*
X166135081Y-119204820D01*
X166103399Y-119220570D01*
X166059798Y-119245295D01*
X166037500Y-119254509D01*
X166031244Y-119254999D01*
X166025668Y-119250098D01*
X166020733Y-119237321D01*
X166016398Y-119214179D01*
X166012627Y-119178186D01*
X166009379Y-119126854D01*
X166006617Y-119057696D01*
X166004300Y-118968226D01*
X166002390Y-118855955D01*
X166000848Y-118718397D01*
X165999636Y-118553064D01*
X165998714Y-118357470D01*
X165998043Y-118129127D01*
X165997584Y-117865549D01*
X165997300Y-117564247D01*
X165997149Y-117222735D01*
X165997095Y-116838526D01*
X165997091Y-116671912D01*
X165997091Y-114074909D01*
X173177174Y-114074909D01*
X173184168Y-117867591D01*
X173191161Y-121660273D01*
X173242884Y-121853887D01*
X173350420Y-122176067D01*
X173492927Y-122469153D01*
X173669857Y-122732155D01*
X173830211Y-122914563D01*
X173945821Y-123026300D01*
X174054513Y-123117098D01*
X174170091Y-123196801D01*
X174306362Y-123275252D01*
X174414724Y-123331317D01*
X174569480Y-123406666D01*
X174698735Y-123462216D01*
X174815510Y-123501181D01*
X174932825Y-123526776D01*
X175063699Y-123542213D01*
X175221152Y-123550707D01*
X175314273Y-123553363D01*
X175454324Y-123555223D01*
X175591199Y-123554491D01*
X175712385Y-123551409D01*
X175805371Y-123546216D01*
X175833818Y-123543364D01*
X176009760Y-123506284D01*
X176204101Y-123439271D01*
X176405552Y-123347768D01*
X176602823Y-123237216D01*
X176784625Y-123113057D01*
X176871113Y-123043368D01*
X176957248Y-122963890D01*
X177050199Y-122869219D01*
X177140526Y-122769882D01*
X177218788Y-122676408D01*
X177275543Y-122599325D01*
X177289132Y-122577191D01*
X177318049Y-122525893D01*
X177360697Y-122450300D01*
X177408098Y-122366330D01*
X177410414Y-122362228D01*
X177528372Y-122107249D01*
X177608322Y-121829887D01*
X177649817Y-121534621D01*
X177652413Y-121225933D01*
X177615666Y-120908303D01*
X177574109Y-120713545D01*
X177546673Y-120629064D01*
X177501879Y-120517808D01*
X177445855Y-120392767D01*
X177384729Y-120266933D01*
X177324628Y-120153294D01*
X177271680Y-120064842D01*
X177260184Y-120048053D01*
X177113702Y-119866659D01*
X176942189Y-119694885D01*
X176755134Y-119540256D01*
X176562028Y-119410296D01*
X176372360Y-119312531D01*
X176294529Y-119282370D01*
X176221767Y-119255997D01*
X176160953Y-119231769D01*
X176145546Y-119224869D01*
X176030985Y-119183844D01*
X175878983Y-119150764D01*
X175697827Y-119127105D01*
X175533636Y-119115784D01*
X175276319Y-119114235D01*
X175052274Y-119134321D01*
X174853504Y-119176950D01*
X174776110Y-119201626D01*
X174703744Y-119226067D01*
X174649292Y-119242633D01*
X174628184Y-119247273D01*
X174626225Y-119224574D01*
X174624259Y-119158045D01*
X174622301Y-119050039D01*
X174620363Y-118902907D01*
X174618460Y-118719001D01*
X174616607Y-118500675D01*
X174614817Y-118250278D01*
X174613105Y-117970165D01*
X174611484Y-117662686D01*
X174609969Y-117330194D01*
X174608574Y-116975041D01*
X174607312Y-116599579D01*
X174606198Y-116206160D01*
X174605247Y-115797136D01*
X174604471Y-115374859D01*
X174604293Y-115258318D01*
X174598455Y-111269364D01*
X169593500Y-111263538D01*
X164588546Y-111257713D01*
X164588619Y-116389720D01*
G37*
X164588619Y-116389720D02*
X164588617Y-116974315D01*
X164588616Y-117514589D01*
X164588656Y-118012406D01*
X164588774Y-118469625D01*
X164589009Y-118888110D01*
X164589398Y-119269722D01*
X164589981Y-119616323D01*
X164590795Y-119929774D01*
X164591877Y-120211938D01*
X164593267Y-120464676D01*
X164595003Y-120689849D01*
X164597122Y-120889321D01*
X164599662Y-121064951D01*
X164602663Y-121218603D01*
X164606161Y-121352137D01*
X164610196Y-121467417D01*
X164614805Y-121566302D01*
X164620026Y-121650656D01*
X164625897Y-121722340D01*
X164632458Y-121783216D01*
X164639745Y-121835145D01*
X164647796Y-121879989D01*
X164656651Y-121919611D01*
X164666347Y-121955871D01*
X164676922Y-121990632D01*
X164688415Y-122025755D01*
X164700863Y-122063102D01*
X164705082Y-122075909D01*
X164753597Y-122196543D01*
X164824733Y-122338319D01*
X164910577Y-122487728D01*
X165003222Y-122631262D01*
X165094756Y-122755411D01*
X165122536Y-122788856D01*
X165351514Y-123019669D01*
X165610356Y-123215398D01*
X165898304Y-123375529D01*
X166124091Y-123468803D01*
X166355000Y-123551797D01*
X166816818Y-123552744D01*
X166975236Y-123552822D01*
X167096119Y-123551747D01*
X167188116Y-123548659D01*
X167259873Y-123542697D01*
X167320037Y-123533003D01*
X167377256Y-123518717D01*
X167440176Y-123498979D01*
X167474909Y-123487327D01*
X167629448Y-123427766D01*
X167797097Y-123350989D01*
X167961444Y-123265299D01*
X168106076Y-123178998D01*
X168167636Y-123136932D01*
X168256551Y-123064571D01*
X168360293Y-122968299D01*
X168465974Y-122861145D01*
X168560707Y-122756137D01*
X168627610Y-122671934D01*
X168781008Y-122423671D01*
X168903342Y-122153756D01*
X168992311Y-121870826D01*
X169045615Y-121583517D01*
X169060956Y-121300463D01*
X169046524Y-121098902D01*
X169019131Y-120938277D01*
X168979030Y-120766373D01*
X168930463Y-120598122D01*
X168877673Y-120448454D01*
X168833207Y-120348090D01*
X168676410Y-120088361D01*
X168480715Y-119844863D01*
X168252573Y-119625079D01*
X168119090Y-119519577D01*
X168012077Y-119442730D01*
X167923457Y-119385116D01*
X167839180Y-119339507D01*
X167745198Y-119298678D01*
X167627461Y-119255402D01*
X167560993Y-119232526D01*
X167379405Y-119176069D01*
X167216415Y-119138871D01*
X167052699Y-119117781D01*
X166868932Y-119109647D01*
X166805273Y-119109263D01*
X166691870Y-119113348D01*
X166565394Y-119124350D01*
X166436163Y-119140634D01*
X166314490Y-119160564D01*
X166210691Y-119182505D01*
X166135081Y-119204820D01*
X166103399Y-119220570D01*
X166059798Y-119245295D01*
X166037500Y-119254509D01*
X166031244Y-119254999D01*
X166025668Y-119250098D01*
X166020733Y-119237321D01*
X166016398Y-119214179D01*
X166012627Y-119178186D01*
X166009379Y-119126854D01*
X166006617Y-119057696D01*
X166004300Y-118968226D01*
X166002390Y-118855955D01*
X166000848Y-118718397D01*
X165999636Y-118553064D01*
X165998714Y-118357470D01*
X165998043Y-118129127D01*
X165997584Y-117865549D01*
X165997300Y-117564247D01*
X165997149Y-117222735D01*
X165997095Y-116838526D01*
X165997091Y-116671912D01*
X165997091Y-114074909D01*
X173177174Y-114074909D01*
X173184168Y-117867591D01*
X173191161Y-121660273D01*
X173242884Y-121853887D01*
X173350420Y-122176067D01*
X173492927Y-122469153D01*
X173669857Y-122732155D01*
X173830211Y-122914563D01*
X173945821Y-123026300D01*
X174054513Y-123117098D01*
X174170091Y-123196801D01*
X174306362Y-123275252D01*
X174414724Y-123331317D01*
X174569480Y-123406666D01*
X174698735Y-123462216D01*
X174815510Y-123501181D01*
X174932825Y-123526776D01*
X175063699Y-123542213D01*
X175221152Y-123550707D01*
X175314273Y-123553363D01*
X175454324Y-123555223D01*
X175591199Y-123554491D01*
X175712385Y-123551409D01*
X175805371Y-123546216D01*
X175833818Y-123543364D01*
X176009760Y-123506284D01*
X176204101Y-123439271D01*
X176405552Y-123347768D01*
X176602823Y-123237216D01*
X176784625Y-123113057D01*
X176871113Y-123043368D01*
X176957248Y-122963890D01*
X177050199Y-122869219D01*
X177140526Y-122769882D01*
X177218788Y-122676408D01*
X177275543Y-122599325D01*
X177289132Y-122577191D01*
X177318049Y-122525893D01*
X177360697Y-122450300D01*
X177408098Y-122366330D01*
X177410414Y-122362228D01*
X177528372Y-122107249D01*
X177608322Y-121829887D01*
X177649817Y-121534621D01*
X177652413Y-121225933D01*
X177615666Y-120908303D01*
X177574109Y-120713545D01*
X177546673Y-120629064D01*
X177501879Y-120517808D01*
X177445855Y-120392767D01*
X177384729Y-120266933D01*
X177324628Y-120153294D01*
X177271680Y-120064842D01*
X177260184Y-120048053D01*
X177113702Y-119866659D01*
X176942189Y-119694885D01*
X176755134Y-119540256D01*
X176562028Y-119410296D01*
X176372360Y-119312531D01*
X176294529Y-119282370D01*
X176221767Y-119255997D01*
X176160953Y-119231769D01*
X176145546Y-119224869D01*
X176030985Y-119183844D01*
X175878983Y-119150764D01*
X175697827Y-119127105D01*
X175533636Y-119115784D01*
X175276319Y-119114235D01*
X175052274Y-119134321D01*
X174853504Y-119176950D01*
X174776110Y-119201626D01*
X174703744Y-119226067D01*
X174649292Y-119242633D01*
X174628184Y-119247273D01*
X174626225Y-119224574D01*
X174624259Y-119158045D01*
X174622301Y-119050039D01*
X174620363Y-118902907D01*
X174618460Y-118719001D01*
X174616607Y-118500675D01*
X174614817Y-118250278D01*
X174613105Y-117970165D01*
X174611484Y-117662686D01*
X174609969Y-117330194D01*
X174608574Y-116975041D01*
X174607312Y-116599579D01*
X174606198Y-116206160D01*
X174605247Y-115797136D01*
X174604471Y-115374859D01*
X174604293Y-115258318D01*
X174598455Y-111269364D01*
X169593500Y-111263538D01*
X164588546Y-111257713D01*
X164588619Y-116389720D01*
G36*
X97933144Y-112037945D02*
G01*
X97923514Y-112038863D01*
X97392268Y-112119269D01*
X96827625Y-112258394D01*
X96249353Y-112449062D01*
X95677220Y-112684098D01*
X95130994Y-112956326D01*
X94713511Y-113204060D01*
X94382188Y-113417581D01*
X94156294Y-113893207D01*
X93719833Y-114899582D01*
X93340854Y-115954841D01*
X93023218Y-117043540D01*
X92770786Y-118150234D01*
X92587420Y-119259481D01*
X92476982Y-120355835D01*
X92458477Y-120683660D01*
X92429096Y-121325819D01*
X92582865Y-121535295D01*
X92916851Y-121923536D01*
X93318282Y-122277292D01*
X93774829Y-122590439D01*
X94274160Y-122856850D01*
X94803945Y-123070400D01*
X95351853Y-123224964D01*
X95905555Y-123314416D01*
X96202557Y-123333488D01*
X96555947Y-123343500D01*
X96994505Y-122830065D01*
X97433062Y-122316630D01*
X97063069Y-122184280D01*
X96623794Y-121997953D01*
X96197424Y-121761910D01*
X95804016Y-121489417D01*
X95463625Y-121193735D01*
X95299331Y-121017937D01*
X95204242Y-120903248D01*
X95135832Y-120814277D01*
X95108377Y-120769631D01*
X95108333Y-120769032D01*
X95139987Y-120780931D01*
X95225134Y-120833547D01*
X95349050Y-120917443D01*
X95436416Y-120979255D01*
X95923886Y-121283848D01*
X96482602Y-121550075D01*
X97107501Y-121776247D01*
X97793517Y-121960673D01*
X98535589Y-122101666D01*
X98981833Y-122161963D01*
X99280641Y-122188020D01*
X99637505Y-122205073D01*
X100033240Y-122213395D01*
X100448661Y-122213262D01*
X100864583Y-122204950D01*
X101261820Y-122188732D01*
X101621187Y-122164884D01*
X101923499Y-122133681D01*
X102029833Y-122118288D01*
X102757014Y-121975788D01*
X103432718Y-121792945D01*
X104050303Y-121572183D01*
X104603128Y-121315925D01*
X105084550Y-121026593D01*
X105151916Y-120979255D01*
X105291968Y-120881782D01*
X105402218Y-120810922D01*
X105467989Y-120775777D01*
X105480000Y-120775729D01*
X105449980Y-120834838D01*
X105368977Y-120934951D01*
X105250578Y-121062305D01*
X105108370Y-121203138D01*
X104955940Y-121343688D01*
X104806875Y-121470193D01*
X104751673Y-121513446D01*
X104471569Y-121713369D01*
X104191332Y-121883224D01*
X103888604Y-122034471D01*
X103541030Y-122178572D01*
X103242767Y-122287011D01*
X103248041Y-122324296D01*
X103311798Y-122416487D01*
X103431230Y-122560078D01*
X103603531Y-122751562D01*
X103681918Y-122835764D01*
X104178134Y-123364667D01*
X104373984Y-123357892D01*
X104532762Y-123349926D01*
X104684926Y-123338512D01*
X104718000Y-123335249D01*
X105309473Y-123237801D01*
X105884672Y-123076837D01*
X106433067Y-122857919D01*
X106944130Y-122586605D01*
X107407333Y-122268458D01*
X107812148Y-121909035D01*
X108136282Y-121530024D01*
X108286682Y-121325214D01*
X108257844Y-120686146D01*
X108173191Y-119621934D01*
X108043132Y-118721985D01*
X104279711Y-118721985D01*
X104209676Y-119052791D01*
X104068972Y-119368315D01*
X103865607Y-119637430D01*
X103609875Y-119850067D01*
X103312068Y-119996156D01*
X103215166Y-120025738D01*
X103032447Y-120049132D01*
X102809495Y-120042497D01*
X102583346Y-120009770D01*
X102391033Y-119954892D01*
X102341808Y-119932848D01*
X102128726Y-119811429D01*
X101968848Y-119685044D01*
X101833082Y-119528828D01*
X101778024Y-119450962D01*
X101609929Y-119131022D01*
X101521304Y-118793045D01*
X101519418Y-118721985D01*
X99369044Y-118721985D01*
X99299010Y-119052791D01*
X99158305Y-119368315D01*
X98954940Y-119637430D01*
X98699208Y-119850067D01*
X98401402Y-119996156D01*
X98304500Y-120025738D01*
X98121780Y-120049132D01*
X97898829Y-120042497D01*
X97672680Y-120009770D01*
X97480367Y-119954892D01*
X97431141Y-119932848D01*
X97218059Y-119811429D01*
X97058181Y-119685044D01*
X96922416Y-119528828D01*
X96867358Y-119450962D01*
X96699262Y-119131022D01*
X96610637Y-118793045D01*
X96601483Y-118448199D01*
X96671799Y-118107649D01*
X96821586Y-117782564D01*
X96867358Y-117711038D01*
X96994210Y-117543811D01*
X97131509Y-117413049D01*
X97306597Y-117295366D01*
X97437965Y-117222979D01*
X97643240Y-117151512D01*
X97892056Y-117118401D01*
X98152475Y-117123644D01*
X98392559Y-117167243D01*
X98536034Y-117222979D01*
X98746042Y-117343880D01*
X98902210Y-117464129D01*
X99031880Y-117607115D01*
X99106642Y-117711038D01*
X99277228Y-118033227D01*
X99364843Y-118371238D01*
X99369044Y-118721985D01*
X101519418Y-118721985D01*
X101512150Y-118448199D01*
X101582466Y-118107649D01*
X101732253Y-117782564D01*
X101778024Y-117711038D01*
X101904877Y-117543811D01*
X102042176Y-117413049D01*
X102217263Y-117295366D01*
X102348632Y-117222979D01*
X102553906Y-117151512D01*
X102802723Y-117118401D01*
X103063142Y-117123644D01*
X103303225Y-117167243D01*
X103446701Y-117222979D01*
X103656709Y-117343880D01*
X103812876Y-117464129D01*
X103942547Y-117607115D01*
X104017309Y-117711038D01*
X104187894Y-118033227D01*
X104275509Y-118371238D01*
X104279711Y-118721985D01*
X108043132Y-118721985D01*
X108016202Y-118535644D01*
X107790453Y-117442686D01*
X107499522Y-116358472D01*
X107146986Y-115298416D01*
X106809875Y-114447296D01*
X106676732Y-114138415D01*
X106568049Y-113896503D01*
X106476358Y-113710111D01*
X106394192Y-113567792D01*
X106314082Y-113458097D01*
X106228561Y-113369580D01*
X106130160Y-113290792D01*
X106011412Y-113210286D01*
X105996718Y-113200790D01*
X105492383Y-112906878D01*
X104943265Y-112642546D01*
X104369895Y-112415278D01*
X103792807Y-112232558D01*
X103232534Y-112101871D01*
X102812467Y-112040046D01*
X102658502Y-112027488D01*
X102563257Y-112032030D01*
X102501795Y-112057727D01*
X102459040Y-112097510D01*
X102425557Y-112138595D01*
X102421721Y-112169511D01*
X102459702Y-112198439D01*
X102551670Y-112233559D01*
X102709794Y-112283051D01*
X102755906Y-112297056D01*
X103309648Y-112485456D01*
X103875375Y-112715406D01*
X104422617Y-112973378D01*
X104920904Y-113245842D01*
X104999281Y-113293076D01*
X105148441Y-113387981D01*
X105306165Y-113494205D01*
X105457524Y-113600891D01*
X105587586Y-113697185D01*
X105681421Y-113772232D01*
X105724096Y-113815177D01*
X105724539Y-113820340D01*
X105684586Y-113806632D01*
X105582803Y-113761370D01*
X105433034Y-113690975D01*
X105249120Y-113601871D01*
X105176055Y-113565874D01*
X104929155Y-113449937D01*
X104657512Y-113332477D01*
X104394649Y-113227467D01*
X104180653Y-113151004D01*
X103425167Y-112937515D01*
X102631675Y-112773792D01*
X101811164Y-112659444D01*
X100974621Y-112594077D01*
X100133033Y-112577298D01*
X99297386Y-112608715D01*
X98478669Y-112687934D01*
X97687868Y-112814563D01*
X96935969Y-112988208D01*
X96233961Y-113208477D01*
X95631369Y-113456757D01*
X95472292Y-113528947D01*
X95344307Y-113582587D01*
X95264857Y-113610605D01*
X95247827Y-113612272D01*
X95270465Y-113581170D01*
X95356004Y-113518638D01*
X95492095Y-113432056D01*
X95666390Y-113328803D01*
X95866541Y-113216257D01*
X96080199Y-113101797D01*
X96232991Y-113023582D01*
X96763433Y-112771107D01*
X97261369Y-112563303D01*
X97756846Y-112387785D01*
X97838833Y-112361577D01*
X98020646Y-112304084D01*
X98175559Y-112254736D01*
X98283641Y-112219901D01*
X98320846Y-112207534D01*
X98352128Y-112179741D01*
X98322799Y-112125325D01*
X98299693Y-112098689D01*
X98248761Y-112052663D01*
X98186568Y-112029722D01*
X98089301Y-112026078D01*
X97933144Y-112037945D01*
G37*
X97933144Y-112037945D02*
X97923514Y-112038863D01*
X97392268Y-112119269D01*
X96827625Y-112258394D01*
X96249353Y-112449062D01*
X95677220Y-112684098D01*
X95130994Y-112956326D01*
X94713511Y-113204060D01*
X94382188Y-113417581D01*
X94156294Y-113893207D01*
X93719833Y-114899582D01*
X93340854Y-115954841D01*
X93023218Y-117043540D01*
X92770786Y-118150234D01*
X92587420Y-119259481D01*
X92476982Y-120355835D01*
X92458477Y-120683660D01*
X92429096Y-121325819D01*
X92582865Y-121535295D01*
X92916851Y-121923536D01*
X93318282Y-122277292D01*
X93774829Y-122590439D01*
X94274160Y-122856850D01*
X94803945Y-123070400D01*
X95351853Y-123224964D01*
X95905555Y-123314416D01*
X96202557Y-123333488D01*
X96555947Y-123343500D01*
X96994505Y-122830065D01*
X97433062Y-122316630D01*
X97063069Y-122184280D01*
X96623794Y-121997953D01*
X96197424Y-121761910D01*
X95804016Y-121489417D01*
X95463625Y-121193735D01*
X95299331Y-121017937D01*
X95204242Y-120903248D01*
X95135832Y-120814277D01*
X95108377Y-120769631D01*
X95108333Y-120769032D01*
X95139987Y-120780931D01*
X95225134Y-120833547D01*
X95349050Y-120917443D01*
X95436416Y-120979255D01*
X95923886Y-121283848D01*
X96482602Y-121550075D01*
X97107501Y-121776247D01*
X97793517Y-121960673D01*
X98535589Y-122101666D01*
X98981833Y-122161963D01*
X99280641Y-122188020D01*
X99637505Y-122205073D01*
X100033240Y-122213395D01*
X100448661Y-122213262D01*
X100864583Y-122204950D01*
X101261820Y-122188732D01*
X101621187Y-122164884D01*
X101923499Y-122133681D01*
X102029833Y-122118288D01*
X102757014Y-121975788D01*
X103432718Y-121792945D01*
X104050303Y-121572183D01*
X104603128Y-121315925D01*
X105084550Y-121026593D01*
X105151916Y-120979255D01*
X105291968Y-120881782D01*
X105402218Y-120810922D01*
X105467989Y-120775777D01*
X105480000Y-120775729D01*
X105449980Y-120834838D01*
X105368977Y-120934951D01*
X105250578Y-121062305D01*
X105108370Y-121203138D01*
X104955940Y-121343688D01*
X104806875Y-121470193D01*
X104751673Y-121513446D01*
X104471569Y-121713369D01*
X104191332Y-121883224D01*
X103888604Y-122034471D01*
X103541030Y-122178572D01*
X103242767Y-122287011D01*
X103248041Y-122324296D01*
X103311798Y-122416487D01*
X103431230Y-122560078D01*
X103603531Y-122751562D01*
X103681918Y-122835764D01*
X104178134Y-123364667D01*
X104373984Y-123357892D01*
X104532762Y-123349926D01*
X104684926Y-123338512D01*
X104718000Y-123335249D01*
X105309473Y-123237801D01*
X105884672Y-123076837D01*
X106433067Y-122857919D01*
X106944130Y-122586605D01*
X107407333Y-122268458D01*
X107812148Y-121909035D01*
X108136282Y-121530024D01*
X108286682Y-121325214D01*
X108257844Y-120686146D01*
X108173191Y-119621934D01*
X108043132Y-118721985D01*
X104279711Y-118721985D01*
X104209676Y-119052791D01*
X104068972Y-119368315D01*
X103865607Y-119637430D01*
X103609875Y-119850067D01*
X103312068Y-119996156D01*
X103215166Y-120025738D01*
X103032447Y-120049132D01*
X102809495Y-120042497D01*
X102583346Y-120009770D01*
X102391033Y-119954892D01*
X102341808Y-119932848D01*
X102128726Y-119811429D01*
X101968848Y-119685044D01*
X101833082Y-119528828D01*
X101778024Y-119450962D01*
X101609929Y-119131022D01*
X101521304Y-118793045D01*
X101519418Y-118721985D01*
X99369044Y-118721985D01*
X99299010Y-119052791D01*
X99158305Y-119368315D01*
X98954940Y-119637430D01*
X98699208Y-119850067D01*
X98401402Y-119996156D01*
X98304500Y-120025738D01*
X98121780Y-120049132D01*
X97898829Y-120042497D01*
X97672680Y-120009770D01*
X97480367Y-119954892D01*
X97431141Y-119932848D01*
X97218059Y-119811429D01*
X97058181Y-119685044D01*
X96922416Y-119528828D01*
X96867358Y-119450962D01*
X96699262Y-119131022D01*
X96610637Y-118793045D01*
X96601483Y-118448199D01*
X96671799Y-118107649D01*
X96821586Y-117782564D01*
X96867358Y-117711038D01*
X96994210Y-117543811D01*
X97131509Y-117413049D01*
X97306597Y-117295366D01*
X97437965Y-117222979D01*
X97643240Y-117151512D01*
X97892056Y-117118401D01*
X98152475Y-117123644D01*
X98392559Y-117167243D01*
X98536034Y-117222979D01*
X98746042Y-117343880D01*
X98902210Y-117464129D01*
X99031880Y-117607115D01*
X99106642Y-117711038D01*
X99277228Y-118033227D01*
X99364843Y-118371238D01*
X99369044Y-118721985D01*
X101519418Y-118721985D01*
X101512150Y-118448199D01*
X101582466Y-118107649D01*
X101732253Y-117782564D01*
X101778024Y-117711038D01*
X101904877Y-117543811D01*
X102042176Y-117413049D01*
X102217263Y-117295366D01*
X102348632Y-117222979D01*
X102553906Y-117151512D01*
X102802723Y-117118401D01*
X103063142Y-117123644D01*
X103303225Y-117167243D01*
X103446701Y-117222979D01*
X103656709Y-117343880D01*
X103812876Y-117464129D01*
X103942547Y-117607115D01*
X104017309Y-117711038D01*
X104187894Y-118033227D01*
X104275509Y-118371238D01*
X104279711Y-118721985D01*
X108043132Y-118721985D01*
X108016202Y-118535644D01*
X107790453Y-117442686D01*
X107499522Y-116358472D01*
X107146986Y-115298416D01*
X106809875Y-114447296D01*
X106676732Y-114138415D01*
X106568049Y-113896503D01*
X106476358Y-113710111D01*
X106394192Y-113567792D01*
X106314082Y-113458097D01*
X106228561Y-113369580D01*
X106130160Y-113290792D01*
X106011412Y-113210286D01*
X105996718Y-113200790D01*
X105492383Y-112906878D01*
X104943265Y-112642546D01*
X104369895Y-112415278D01*
X103792807Y-112232558D01*
X103232534Y-112101871D01*
X102812467Y-112040046D01*
X102658502Y-112027488D01*
X102563257Y-112032030D01*
X102501795Y-112057727D01*
X102459040Y-112097510D01*
X102425557Y-112138595D01*
X102421721Y-112169511D01*
X102459702Y-112198439D01*
X102551670Y-112233559D01*
X102709794Y-112283051D01*
X102755906Y-112297056D01*
X103309648Y-112485456D01*
X103875375Y-112715406D01*
X104422617Y-112973378D01*
X104920904Y-113245842D01*
X104999281Y-113293076D01*
X105148441Y-113387981D01*
X105306165Y-113494205D01*
X105457524Y-113600891D01*
X105587586Y-113697185D01*
X105681421Y-113772232D01*
X105724096Y-113815177D01*
X105724539Y-113820340D01*
X105684586Y-113806632D01*
X105582803Y-113761370D01*
X105433034Y-113690975D01*
X105249120Y-113601871D01*
X105176055Y-113565874D01*
X104929155Y-113449937D01*
X104657512Y-113332477D01*
X104394649Y-113227467D01*
X104180653Y-113151004D01*
X103425167Y-112937515D01*
X102631675Y-112773792D01*
X101811164Y-112659444D01*
X100974621Y-112594077D01*
X100133033Y-112577298D01*
X99297386Y-112608715D01*
X98478669Y-112687934D01*
X97687868Y-112814563D01*
X96935969Y-112988208D01*
X96233961Y-113208477D01*
X95631369Y-113456757D01*
X95472292Y-113528947D01*
X95344307Y-113582587D01*
X95264857Y-113610605D01*
X95247827Y-113612272D01*
X95270465Y-113581170D01*
X95356004Y-113518638D01*
X95492095Y-113432056D01*
X95666390Y-113328803D01*
X95866541Y-113216257D01*
X96080199Y-113101797D01*
X96232991Y-113023582D01*
X96763433Y-112771107D01*
X97261369Y-112563303D01*
X97756846Y-112387785D01*
X97838833Y-112361577D01*
X98020646Y-112304084D01*
X98175559Y-112254736D01*
X98283641Y-112219901D01*
X98320846Y-112207534D01*
X98352128Y-112179741D01*
X98322799Y-112125325D01*
X98299693Y-112098689D01*
X98248761Y-112052663D01*
X98186568Y-112029722D01*
X98089301Y-112026078D01*
X97933144Y-112037945D01*
%LPC*%
D11*
X172500000Y-105500000D03*
X170000000Y-105500000D03*
X167500000Y-105500000D03*
X167500000Y-91000000D03*
X172500000Y-91000000D03*
D12*
X164300000Y-98000000D03*
X175700000Y-98000000D03*
D11*
X207500000Y-105500000D03*
X205000000Y-105500000D03*
X202500000Y-105500000D03*
X202500000Y-91000000D03*
X207500000Y-91000000D03*
D12*
X199300000Y-98000000D03*
X210700000Y-98000000D03*
D11*
X102500000Y-105500000D03*
X100000000Y-105500000D03*
X97500000Y-105500000D03*
X97500000Y-91000000D03*
X102500000Y-91000000D03*
D12*
X94300000Y-98000000D03*
X105700000Y-98000000D03*
D13*
X210110000Y-57900000D03*
X210110000Y-60440000D03*
X210110000Y-62980000D03*
X210110000Y-65520000D03*
X210110000Y-68060000D03*
X210110000Y-70600000D03*
X210110000Y-73140000D03*
X210110000Y-75680000D03*
X210110000Y-78220000D03*
X210110000Y-80760000D03*
X199950000Y-80760000D03*
X199950000Y-78220000D03*
X199950000Y-75680000D03*
X199950000Y-73140000D03*
X199950000Y-70600000D03*
X199950000Y-68060000D03*
X199950000Y-65520000D03*
X199950000Y-62980000D03*
X199950000Y-60440000D03*
X199950000Y-57900000D03*
X175110000Y-57900000D03*
X175110000Y-60440000D03*
X175110000Y-62980000D03*
X175110000Y-65520000D03*
X175110000Y-68060000D03*
X175110000Y-70600000D03*
X175110000Y-73140000D03*
X175110000Y-75680000D03*
X175110000Y-78220000D03*
X175110000Y-80760000D03*
X164950000Y-80760000D03*
X164950000Y-78220000D03*
X164950000Y-75680000D03*
X164950000Y-73140000D03*
X164950000Y-70600000D03*
X164950000Y-68060000D03*
X164950000Y-65520000D03*
X164950000Y-62980000D03*
X164950000Y-60440000D03*
X164950000Y-57900000D03*
X140110000Y-57900000D03*
X140110000Y-60440000D03*
X140110000Y-62980000D03*
X140110000Y-65520000D03*
X140110000Y-68060000D03*
X140110000Y-70600000D03*
X140110000Y-73140000D03*
X140110000Y-75680000D03*
X140110000Y-78220000D03*
X140110000Y-80760000D03*
X129950000Y-80760000D03*
X129950000Y-78220000D03*
X129950000Y-75680000D03*
X129950000Y-73140000D03*
X129950000Y-70600000D03*
X129950000Y-68060000D03*
X129950000Y-65520000D03*
X129950000Y-62980000D03*
X129950000Y-60440000D03*
X129950000Y-57900000D03*
X105110000Y-57900000D03*
X105110000Y-60440000D03*
X105110000Y-62980000D03*
X105110000Y-65520000D03*
X105110000Y-68060000D03*
X105110000Y-70600000D03*
X105110000Y-73140000D03*
X105110000Y-75680000D03*
X105110000Y-78220000D03*
X105110000Y-80760000D03*
X94950000Y-80760000D03*
X94950000Y-78220000D03*
X94950000Y-75680000D03*
X94950000Y-73140000D03*
X94950000Y-70600000D03*
X94950000Y-68060000D03*
X94950000Y-65520000D03*
X94950000Y-62980000D03*
X94950000Y-60440000D03*
X94950000Y-57900000D03*
D14*
X148050000Y-53390000D03*
X156700000Y-53390000D03*
D15*
X148050000Y-56770000D03*
X156700000Y-56770000D03*
D16*
X151140000Y-56400000D03*
X151140000Y-57750000D03*
X149460000Y-56400000D03*
X150300000Y-56400000D03*
X151990000Y-56400000D03*
X152830000Y-56400000D03*
X153670000Y-56400000D03*
X154510000Y-56400000D03*
X155350000Y-56400000D03*
X149460000Y-57750000D03*
X150300000Y-57750000D03*
X151990000Y-57750000D03*
X152830000Y-57750000D03*
X153670000Y-57750000D03*
X154510000Y-57750000D03*
X155350000Y-57750000D03*
D11*
X137500000Y-105500000D03*
X135000000Y-105500000D03*
X132500000Y-105500000D03*
X132500000Y-91000000D03*
X137500000Y-91000000D03*
D12*
X129300000Y-98000000D03*
X140700000Y-98000000D03*
D17*
X86500000Y-121100000D03*
X86500000Y-53100000D03*
X218500000Y-53100000D03*
X218500000Y-121100000D03*
M02*
